<?xml version="1.0" standalone="no"?>
<!DOCTYPE svg PUBLIC "-//W3C//DTD SVG 20010904//EN"
 "http://www.w3.org/TR/2001/REC-SVG-20010904/DTD/svg10.dtd">
<svg version="1.0" xmlns="http://www.w3.org/2000/svg"
 width="16.000000pt" height="16.000000pt" viewBox="0 0 16.000000 16.000000"
 preserveAspectRatio="xMidYMid meet">
<metadata>
Created by potrace 1.11, written by Peter Selinger 2001-2013
</metadata>
<g transform="translate(0.000000,16.000000) scale(0.007442,-0.007442)"
fill="#000000" stroke="none">
<path d="M1143 2093 l-83 -56 0 -634 c0 -348 0 -743 0 -878 0 -135 0 -308 0
-385 l0 -140 85 0 85 0 0 1075 c0 591 -1 1075 -2 1074 -2 0 -40 -25 -85 -56z"/>
<path d="M1323 1044 l0 -1044 86 0 86 0 0 986 0 987 -86 58 -86 57 0 -1044z"/>
<path d="M875 1914 l-80 -54 -1 -930 0 -930 86 0 86 0 0 985 c0 542 -2 985 -5
984 -3 0 -42 -25 -86 -55z"/>
<path d="M1590 956 l0 -956 85 0 85 0 0 903 0 902 -62 39 c-35 21 -73 46 -85
54 l-23 14 0 -956z"/>
<path d="M608 1737 l-78 -52 0 -842 0 -843 85 0 85 0 0 895 c0 492 -3 895 -7
894 -5 0 -43 -24 -85 -52z"/>
<path d="M1851 865 l-1 -866 88 3 87 3 0 795 c1 437 -1 803 -3 812 -3 14 -147
118 -164 118 -4 0 -7 -389 -7 -865z"/>
<path d="M349 1563 l-84 -58 0 -753 0 -753 85 3 85 3 0 808 c1 444 1 807 0
807 -1 0 -39 -26 -86 -57z"/>
<path d="M83 1385 l-83 -55 0 -665 0 -665 85 0 85 0 0 720 c0 396 -1 720 -2
720 -2 0 -40 -25 -85 -55z"/>
</g>
</svg>
