<svg width="180" height="48" viewBox="0 0 180 48" fill="none" xmlns="http://www.w3.org/2000/svg">
<path d="M67.2863 37.0716H72.4647L69.8755 29.741L67.2863 37.0716ZM58.0391 47.563L69.9091 20.0566L81.7792 47.563H76.8362L74.2469 41.3085H65.6722L62.9821 47.563H58.0391Z" fill="#9C233A"/>
<path d="M82.9561 47.5629V29.4383H86.9576V31.1869C87.7646 30.4135 88.538 29.8418 89.3114 29.5392C90.0848 29.2029 90.9927 29.0348 92.0688 29.0348C94.6916 29.0348 96.642 29.9763 97.8525 31.8258C98.2897 32.5319 98.5923 33.3053 98.7604 34.2132C98.9286 35.0875 99.0294 36.3317 99.0294 37.8785V47.5965H94.6916V38.7528C94.6916 36.3989 94.389 34.8858 93.7501 34.146C93.1784 33.4398 92.3042 33.0699 91.2281 33.0699C89.7486 33.0699 88.6725 33.6416 88 34.8185C87.731 35.222 87.5629 35.7601 87.462 36.3653C87.3611 36.9706 87.3275 37.8785 87.3275 39.0554V47.5965H82.9561V47.5629Z" fill="#9C233A"/>
<path d="M102.46 47.5629V33.4062H100.341V29.4719H102.46V23.4192H106.797V29.4719H109.42V33.4062H106.797V47.5629H102.46Z" fill="#9C233A"/>
<path d="M110.731 47.5629V29.4383H115.069V47.5629H110.731ZM110.731 27.5216V23.4192H115.069V27.5216H110.731Z" fill="#9C233A"/>
<path d="M130.706 41.611H135.615C134.875 43.6286 133.698 45.209 132.151 46.3187C130.605 47.4284 128.755 48 126.637 48C125.325 48 124.048 47.7646 122.871 47.2602C121.66 46.7559 120.651 46.0833 119.777 45.2427C118.903 44.402 118.23 43.3932 117.726 42.2163C117.221 41.0394 116.952 39.8288 116.952 38.5174C116.952 36.7688 117.356 35.1884 118.197 33.7088C119.037 32.2629 120.181 31.1196 121.66 30.279C123.106 29.4383 124.72 29.0348 126.502 29.0348C127.814 29.0348 129.024 29.2702 130.201 29.7409C131.378 30.2117 132.42 30.8506 133.295 31.7249C133.866 32.2965 134.337 32.8346 134.673 33.3726C135.01 33.9106 135.346 34.6168 135.649 35.491H130.739C129.899 33.8434 128.486 33.0027 126.502 33.0027C124.989 33.0027 123.745 33.5071 122.803 34.5159C121.828 35.5247 121.357 36.8361 121.357 38.4502C121.357 40.0306 121.862 41.342 122.871 42.3844C123.879 43.4268 125.124 43.9649 126.637 43.9649C127.545 43.9649 128.318 43.7631 128.957 43.3932C129.562 43.057 130.168 42.4517 130.706 41.611Z" fill="#9C233A"/>
<path d="M146.174 33.0363C144.661 33.0363 143.416 33.5743 142.441 34.6168C141.466 35.6928 140.962 37.0379 140.962 38.6855C140.962 40.266 141.466 41.5438 142.441 42.5526C143.45 43.5277 144.728 44.0321 146.308 44.0321C147.889 44.0321 149.167 43.5277 150.108 42.5189C151.083 41.5102 151.554 40.1987 151.554 38.5847C151.554 36.937 151.05 35.6255 150.041 34.5831C149.032 33.5407 147.754 33.0363 146.174 33.0363ZM155.656 29.4719V47.5965H151.688V45.2427C150.814 46.2178 149.906 46.9576 148.998 47.3611C148.057 47.7983 146.947 48 145.703 48C143.954 48 142.408 47.5965 140.995 46.7895C139.617 45.9825 138.507 44.8728 137.734 43.4269C136.96 41.9809 136.557 40.3669 136.557 38.5847C136.557 36.7688 136.96 35.1212 137.734 33.6752C138.507 32.2293 139.617 31.086 141.029 30.279C142.441 29.4719 144.022 29.0348 145.77 29.0348C147.082 29.0348 148.191 29.2702 149.167 29.7073C150.108 30.1445 150.949 30.8842 151.688 31.8594V29.4383H155.656V29.4719Z" fill="#9C233A"/>
<path d="M157.64 47.5629V44.4357H160.868V47.5629H157.64Z" fill="#3E82D0"/>
<path d="M162.449 44.4021H164.803C164.903 45.31 165.441 45.7808 166.45 45.7808C166.921 45.7808 167.325 45.6463 167.627 45.4109C167.93 45.1755 168.064 44.8392 168.064 44.4357C168.064 43.9313 167.863 43.5614 167.459 43.2588C167.291 43.1243 167.089 43.0234 166.887 42.9562C166.686 42.8889 166.215 42.6871 165.408 42.4181C164.601 42.1491 163.962 41.7456 163.525 41.2076C163.088 40.7032 162.886 40.0643 162.886 39.3581C162.886 38.4839 163.222 37.7104 163.895 37.1052C164.567 36.4999 165.408 36.1973 166.383 36.1973C166.955 36.1973 167.493 36.2981 168.031 36.5335C168.535 36.7689 168.972 37.0716 169.275 37.4751C169.51 37.7441 169.645 38.0467 169.779 38.3157C169.88 38.6184 169.947 38.9546 169.981 39.3581H167.661C167.627 38.9882 167.493 38.6856 167.291 38.4839C167.056 38.2821 166.753 38.1812 166.383 38.1812C166.013 38.1812 165.71 38.2821 165.475 38.4839C165.24 38.6856 165.139 38.9546 165.139 39.2909C165.139 39.6944 165.374 40.0643 165.845 40.2997C165.946 40.3669 166.383 40.5351 167.156 40.7704C167.762 40.9722 168.199 41.1403 168.468 41.2748C168.737 41.4093 168.972 41.5775 169.208 41.7792C169.914 42.3845 170.284 43.1579 170.284 44.0994C170.284 45.1082 169.914 45.9489 169.174 46.655C168.434 47.3276 167.526 47.6975 166.45 47.6975C165.778 47.6975 165.172 47.563 164.601 47.3276C164.029 47.0922 163.558 46.7223 163.222 46.2852C162.987 45.9825 162.819 45.6799 162.718 45.4109C162.55 45.1755 162.482 44.8392 162.449 44.4021Z" fill="#3E82D0"/>
<path d="M171.023 36.4326H173.276V43.4941C173.276 43.8977 173.31 44.2339 173.344 44.4357C173.377 44.6374 173.478 44.8392 173.579 45.041C173.747 45.2763 173.949 45.4445 174.218 45.579C174.487 45.7135 174.79 45.7807 175.126 45.7807C175.462 45.7807 175.765 45.7135 176.034 45.579C176.303 45.4445 176.505 45.2763 176.673 45.041C176.774 44.8728 176.874 44.6711 176.908 44.4357C176.942 44.2339 176.975 43.8977 176.975 43.4941V36.4326H179.195V43.4941C179.195 44.1667 179.127 44.7383 178.993 45.1755C178.858 45.6126 178.623 46.0497 178.32 46.386C177.95 46.8231 177.48 47.1594 176.908 47.3948C176.336 47.6302 175.731 47.7647 175.092 47.7647C174.352 47.7647 173.714 47.5966 173.075 47.2939C172.469 46.9913 171.965 46.5541 171.629 46.0161C171.225 45.3772 171.023 44.5366 171.023 43.4605V36.4326Z" fill="#3E82D0"/>
<path d="M5.04395 47.4621H0V21.5546L5.04395 18.0911V47.4621Z" fill="#3E82D0"/>
<path d="M11.6348 47.462H6.59082V17.0486L11.6348 13.5851V47.462Z" fill="#B1CD49"/>
<path d="M18.2588 47.462H13.2148V12.509L18.2588 9.04553V47.462Z" fill="#694898"/>
<path d="M24.8496 47.462H19.8057V7.96943L24.8496 4.53955V47.462Z" fill="#CC2035"/>
<path d="M31.4741 47.462H26.4302V3.46351L31.4741 0V47.462Z" fill="#E0922E"/>
<path d="M38.0649 47.462H33.021V1.07605L38.0649 4.53956V47.462Z" fill="#FFF12D"/>
<path d="M44.6895 47.4621H39.6455V5.58203L44.6895 9.04554V47.4621Z" fill="#BB252B"/>
<path d="M51.2803 47.4619H46.2363V10.1215L51.2803 13.585V47.4619Z" fill="#8CBE4F"/>
</svg>
