<svg xmlns="http://www.w3.org/2000/svg">
  <symbol id="ico-location" viewBox="0 0 13 17" fill="none" xmlns="http://www.w3.org/2000/svg">
    <path d="M6.25671 0C2.80679 0 0 2.80679 0 6.25671C0 10.5929 6.26287 17 6.26287 17C6.26287 17 12.5134 10.3797 12.5134 6.25671C12.5134 2.80679 9.70675 0 6.25671 0ZM8.1445 8.08868C7.62396 8.60911 6.94039 8.86937 6.25671 8.86937C5.57315 8.86937 4.88936 8.60911 4.36904 8.08868C3.32809 7.04784 3.32809 5.35419 4.36904 4.31323C4.8731 3.80896 5.54359 3.53123 6.25671 3.53123C6.96984 3.53123 7.64022 3.80907 8.1445 4.31323C9.18545 5.35419 9.18545 7.04784 8.1445 8.08868Z" fill="currentColor" />
  </symbol>
  <symbol id="ico-cart" viewBox="0 0 20 20" fill="none" xmlns="http://www.w3.org/2000/svg">
    <path d="M20 11.4503V5.78234L4 2.92938V1.9433C4 0.871777 3.11729 0 2.03227 0H0V1.31675H2.03222C2.38204 1.31675 2.66667 1.59783 2.66667 1.9433V11.7486C2.66667 13.1522 3.82293 14.2941 5.24422 14.2941H5.77778V15.7946C5.50538 15.6767 5.20484 15.6108 4.88889 15.6108C3.66356 15.6108 2.66667 16.5953 2.66667 17.8054C2.66667 19.0155 3.66356 20 4.88889 20C6.03924 20 6.98813 19.1323 7.09996 18.0249H7.11111V14.2941H18.6667V15.7946C18.3943 15.6767 18.0937 15.6108 17.7778 15.6108C16.5524 15.6108 15.5556 16.5953 15.5556 17.8054C15.5556 19.0155 16.5524 20 17.7778 20C18.9281 20 19.877 19.1323 19.9888 18.0249H20V12.9773H5.24422C4.55813 12.9773 4 12.4261 4 11.7486V11.2308L20 11.4503ZM4.88889 18.6833C4.39876 18.6833 4 18.2895 4 17.8054C4 17.3214 4.39876 16.9276 4.88889 16.9276C5.37902 16.9276 5.77778 17.3214 5.77778 17.8054C5.77778 18.2895 5.37902 18.6833 4.88889 18.6833ZM17.7778 18.6833C17.2876 18.6833 16.8889 18.2895 16.8889 17.8054C16.8889 17.3214 17.2876 16.9276 17.7778 16.9276C18.2679 16.9276 18.6667 17.3214 18.6667 17.8054C18.6667 18.2895 18.2679 18.6833 17.7778 18.6833ZM10.6667 10.0054L8 9.96886V4.98065L10.6667 5.45613V10.0054ZM12 5.69389L14.4444 6.12978V10.0573L12 10.0237V5.69389ZM6.66667 9.95056L4 9.914V4.26741L6.66667 4.74289V9.95056ZM18.6667 10.1152L15.7778 10.0755V6.3675L18.6667 6.88261V10.1152Z" fill="currentColor" />
  </symbol>
  <symbol id="ico-compare" viewBox="0 0 14 16" fill="none" xmlns="http://www.w3.org/2000/svg">
    <rect y="9" width="2" height="7" rx="1" fill="currentColor" />
    <rect x="4" y="5" width="2" height="11" rx="1" fill="currentColor" />
    <rect x="8" width="2" height="16" rx="1" fill="currentColor" />
    <rect x="12" y="6" width="2" height="10" rx="1" fill="currentColor" />
  </symbol>
  <symbol id="ico-star" viewBox="0 0 16 16" fill="none" xmlns="http://www.w3.org/2000/svg">
    <path d="M0.294307 5.69565C0.477174 5.49042 0.727067 5.35693 0.999326 5.31903V5.31846L5.25161 4.73106L6.93434 0.710193C7.18005 0.12165 7.85634 -0.156266 8.44485 0.0894424C8.72541 0.206589 8.94849 0.429631 9.0656 0.710193L10.7483 4.73106L15.0006 5.31846C15.6341 5.40665 16.0763 5.99178 15.9881 6.62532C15.9502 6.89758 15.8167 7.14747 15.6115 7.33034L12.4077 10.1873L13.0659 14.6704C13.1373 15.1256 12.9282 15.5791 12.5357 15.8206C12.1487 16.068 11.651 16.0588 11.2735 15.7971L8 13.571L4.72651 15.7994C4.19829 16.1579 3.47945 16.0203 3.12091 15.4921C2.958 15.2521 2.89127 14.9596 2.93403 14.6726L3.59227 10.1878L0.388485 7.33087C-0.0890713 6.90534 -0.131256 6.17321 0.294307 5.69565ZM4.58308 9.54215C4.72641 9.67021 4.79574 9.86172 4.76765 10.0518L4.08199 14.8515L7.67715 12.4071C7.87097 12.2754 8.12558 12.2754 8.3194 12.4071L11.9357 14.8367L11.2323 10.0496C11.205 9.86021 11.2743 9.66974 11.4169 9.54219L14.8453 6.45209L10.2696 5.8207C10.0692 5.79307 9.89844 5.6616 9.82047 5.47502L7.99317 1.14275C7.9911 1.1453 7.98956 1.14821 7.98858 1.15132L6.18013 5.47274C6.10216 5.65932 5.93135 5.7908 5.73104 5.81842L1.14962 6.47781L4.58308 9.54215Z" fill="currentColor" />
  </symbol>
  <symbol id="ico-search" viewBox="0 0 19 19" fill="none" xmlns="http://www.w3.org/2000/svg">
    <path d="M8.3672 0C3.75365 0 0 3.75365 0 8.3672C0 12.981 3.75365 16.7344 8.3672 16.7344C12.981 16.7344 16.7344 12.981 16.7344 8.3672C16.7344 3.75365 12.981 0 8.3672 0ZM8.3672 15.1897C4.60531 15.1897 1.54471 12.1291 1.54471 8.36724C1.54471 4.60535 4.60531 1.54471 8.3672 1.54471C12.1291 1.54471 15.1897 4.60531 15.1897 8.3672C15.1897 12.1291 12.1291 15.1897 8.3672 15.1897Z" fill="currentColor" />
    <path d="M18.7737 17.6816L14.3455 13.2534C14.0438 12.9517 13.5551 12.9517 13.2534 13.2534C12.9517 13.5549 12.9517 14.0441 13.2534 14.3455L17.6816 18.7737C17.8324 18.9246 18.0299 19 18.2277 19C18.4251 19 18.6228 18.9246 18.7737 18.7737C19.0755 18.4722 19.0755 17.9831 18.7737 17.6816Z" fill="currentColor" />
  </symbol>
  <symbol id="ico-callback" viewBox="0 0 15 15" fill="none" xmlns="http://www.w3.org/2000/svg">
    <path d="M14.1667 10.4167C13.1667 10.4167 12.1667 10.25 11.1667 9.91667C10.9167 9.83333 10.5833 9.91667 10.3333 10.0833L8.5 11.9167C6.1667 10.75 4.25 8.75 3 6.41667L4.83333 4.58333C5.08333 4.33333 5.16667 4 5 3.75C4.75 2.83333 4.58333 1.83333 4.58333 0.833333C4.58333 0.333333 4.25 0 3.75 0H0.833333C0.333333 0 0 0.333333 0 0.833333C0 8.66667 6.33333 15 14.1667 15C14.6667 15 15 14.6667 15 14.1667V11.25C15 10.75 14.6667 10.4167 14.1667 10.4167ZM13.3333 7.5H15C15 3.33333 11.6667 0 7.5 0V1.66667C10.75 1.66667 13.3333 4.25 13.3333 7.5ZM10 7.5H11.6667C11.6667 5.16667 9.83333 3.33333 7.5 3.33333V5C8.91667 5 10 6.08333 10 7.5Z" fill="currentColor" />
  </symbol>
  <!-- menu -->
  <symbol id="ico-menu-plitka" viewBox="0 0 30 30" fill="none" xmlns="http://www.w3.org/2000/svg">
    <rect x="7" y="7" width="6" height="6" rx="1" stroke="currentColor" stroke-width="2" />
    <rect x="17" y="7" width="6" height="6" rx="1" stroke="currentColor" stroke-width="2" />
    <rect x="7" y="17" width="6" height="6" rx="1" stroke="currentColor" stroke-width="2" />
    <rect x="17" y="17" width="6" height="6" rx="1" stroke="currentColor" stroke-width="2" />
  </symbol>
  <symbol id="ico-menu-keramogranit" viewBox="0 0 30 30" fill="none" xmlns="http://www.w3.org/2000/svg">
    <rect x="9" y="7" width="4" height="16" rx="1" stroke="currentColor" stroke-width="2" />
    <rect x="17" y="7" width="4" height="16" rx="1" stroke="currentColor" stroke-width="2" />
  </symbol>
  <symbol id="ico-menu-mozaika" viewBox="0 0 30 30" fill="none" xmlns="http://www.w3.org/2000/svg">
    <rect x="7.20911" y="5.41411" width="4" height="4" rx="1" transform="rotate(44.3222 7.20911 5.41411)" stroke="currentColor" stroke-width="2" />
    <rect x="15.2091" y="5.41411" width="4" height="4" rx="1" transform="rotate(44.3222 15.2091 5.41411)" stroke="currentColor" stroke-width="2" />
    <rect x="23.2091" y="5.41411" width="4" height="4" rx="1" transform="rotate(44.3222 23.2091 5.41411)" stroke="currentColor" stroke-width="2" />
    <rect x="11.2091" y="12.4141" width="4" height="4" rx="1" transform="rotate(44.3222 11.2091 12.4141)" stroke="currentColor" stroke-width="2" />
    <rect x="19.2091" y="12.4141" width="4" height="4" rx="1" transform="rotate(44.3222 19.2091 12.4141)" stroke="currentColor" stroke-width="2" />
    <rect x="7.20911" y="19.4141" width="4" height="4" rx="1" transform="rotate(44.3222 7.20911 19.4141)" stroke="currentColor" stroke-width="2" />
    <rect x="15.2091" y="19.4141" width="4" height="4" rx="1" transform="rotate(44.3222 15.2091 19.4141)" stroke="currentColor" stroke-width="2" />
    <rect x="23.2091" y="19.4141" width="4" height="4" rx="1" transform="rotate(44.3222 23.2091 19.4141)" stroke="currentColor" stroke-width="2" />
  </symbol>
  <symbol id="ico-menu-stypeni" viewBox="0 0 30 30" fill="none" xmlns="http://www.w3.org/2000/svg">
    <path d="M28.6407 23.0814H3.85627V21.0439H7.92193C8.36922 21.0439 8.73133 20.6818 8.73133 20.2345V17.3876H12.7969C13.2442 17.3876 13.6063 17.0255 13.6063 16.5782V13.7313H17.672C18.1193 13.7313 18.4814 13.3692 18.4814 12.9219V10.0751H22.5471C22.9943 10.0751 23.3564 9.71295 23.3564 9.26566V6.41879H27.422C27.8693 6.41879 28.2314 6.05669 28.2314 5.6094C28.2314 5.16211 27.8693 4.8 27.422 4.8H22.547C22.0997 4.8 21.7376 5.16211 21.7376 5.6094V8.45627H17.6719C17.2246 8.45627 16.8625 8.81837 16.8625 9.26566V12.1125H12.7969C12.3496 12.1125 11.9875 12.4746 11.9875 12.9219V15.7688H7.92187C7.47458 15.7688 7.11247 16.1309 7.11247 16.5782V19.4251H3.04687C2.59958 19.4251 2.23747 19.7872 2.23747 20.2345V23.0813H0.60934H0.609306C0.162106 23.0814 -0.2 23.4435 -0.2 23.8907C-0.2 24.338 0.162106 24.7001 0.609397 24.7001H28.6408C29.0881 24.7001 29.4502 24.338 29.4502 23.8907V23.8907C29.4501 23.4435 29.088 23.0814 28.6407 23.0814Z" fill="currentColor" stroke="currentColor" stroke-width="0.4" />
  </symbol>
  <symbol id="ico-menu-lepnina" viewBox="0 0 30 30" fill="none" xmlns="http://www.w3.org/2000/svg">
    <path d="M27.5165 18.4255C27.5133 18.4177 27.5098 18.41 27.5063 18.4023C26.6636 16.5701 25.2896 15.8286 24.7341 15.5937C24.1586 15.3452 23.7268 15.2536 23.5416 15.2144C23.5378 15.213 23.5337 15.2119 23.5299 15.2105C23.5185 15.2063 23.5068 15.2025 23.495 15.1989C23.4889 15.197 23.483 15.1946 23.4768 15.1928C23.4725 15.1916 23.4681 15.191 23.4638 15.1898C23.4485 15.1857 23.433 15.1822 23.4173 15.179C23.4072 15.177 23.3972 15.1751 23.3872 15.1735C23.3803 15.1724 23.3736 15.1706 23.3666 15.1697C23.3573 15.1685 23.3481 15.1682 23.3388 15.1674C23.3308 15.1666 23.3229 15.1658 23.3148 15.1653C23.2964 15.1642 23.2782 15.1638 23.26 15.1639C23.2545 15.1639 23.249 15.1638 23.2435 15.164C23.2364 15.1642 23.2293 15.1638 23.2223 15.1642C23.2201 15.164 23.2179 15.1638 23.2157 15.1635C23.0139 15.144 22.5953 15.1035 22.0159 15.1628C21.1649 15.2327 19.9321 15.674 19.0122 16.7052C19.0067 16.7114 19.0012 16.7178 18.9959 16.7242C18.572 17.2319 18.2521 17.8496 18.0692 18.5126C18.0205 18.6523 18.0153 18.7751 18.0138 18.8456C18.0137 18.8459 18.0137 18.8461 18.0136 18.8464C17.9581 19.0059 17.9538 19.15 17.9674 19.2635C17.9664 19.2733 17.9649 19.283 17.9638 19.2928C17.9526 19.3836 17.9356 19.5219 17.9597 19.6889C17.9544 19.9937 18.0274 20.2647 18.0873 20.4877C18.1043 20.5509 18.1203 20.6107 18.1326 20.6637C18.1471 20.727 18.1712 20.7911 18.2012 20.8487C18.2039 20.8618 18.2069 20.8749 18.2103 20.8879C18.2468 21.0287 18.3089 21.1324 18.3499 21.1956C18.3777 21.294 18.4249 21.3858 18.4891 21.4657L18.5295 21.5161C18.5527 21.5643 18.5907 21.6382 18.6509 21.7168C18.8387 21.9695 19.0497 22.1648 19.2362 22.3374L19.3106 22.4065C19.3328 22.4273 19.3563 22.4467 19.3809 22.4647C19.623 22.6419 19.8665 22.7569 20.0814 22.8584C20.1173 22.8754 20.1528 22.8922 20.1877 22.909C20.2177 22.9235 20.2486 22.936 20.2802 22.9464C20.5057 23.0207 20.722 23.0524 20.8958 23.0779C20.9669 23.0883 21.0342 23.0982 21.0901 23.1092C21.1336 23.1177 21.1776 23.1225 21.2219 23.1234C21.2425 23.1238 21.263 23.124 21.2835 23.124C22.6261 23.124 23.5891 22.2249 23.8183 21.3644C23.9265 20.9579 23.6848 20.5405 23.2782 20.4323C22.8718 20.3242 22.4544 20.5659 22.3461 20.9724C22.2878 21.1915 21.9254 21.5899 21.3082 21.6004C21.2428 21.5891 21.1791 21.5797 21.1168 21.5706C21.0003 21.5535 20.8893 21.5372 20.7964 21.5114C20.7751 21.5013 20.7537 21.4912 20.7321 21.481C20.5781 21.4082 20.4319 21.3391 20.3124 21.2578C20.2987 21.245 20.2849 21.2322 20.2709 21.2193C20.1279 21.0869 19.9923 20.9614 19.8902 20.83C19.8662 20.7797 19.8264 20.7008 19.7605 20.616C19.7605 20.616 19.7605 20.6159 19.7605 20.6158C19.7304 20.5349 19.6937 20.4698 19.6644 20.4228C19.6461 20.3599 19.6235 20.2978 19.5966 20.2368C19.5841 20.1873 19.5711 20.1391 19.5585 20.092C19.5199 19.9484 19.4761 19.7857 19.4836 19.6991C19.4896 19.6306 19.4863 19.5617 19.4738 19.4943C19.4745 19.489 19.4751 19.4837 19.4758 19.4783C19.4838 19.4132 19.4948 19.3239 19.4917 19.2164C19.4986 19.1886 19.5046 19.1601 19.5102 19.1309C19.5289 19.0489 19.5339 18.9768 19.5357 18.9253C19.6597 18.4717 19.8743 18.0521 20.1575 17.7099C20.7805 17.0172 21.6168 16.7225 22.1456 16.6807C22.1518 16.6802 22.1581 16.6797 22.1643 16.679C22.5962 16.6342 22.9036 16.6639 23.0688 16.6799C23.0972 16.6826 23.1221 16.685 23.1459 16.6869C23.1742 16.6938 23.201 16.6996 23.2252 16.7047C23.3892 16.7394 23.6945 16.804 24.1324 16.9933C24.1344 16.9942 24.1366 16.9951 24.1387 16.996C24.5269 17.1597 25.4952 17.6848 26.1168 19.0272C26.3821 19.664 26.5046 20.3926 26.4711 21.1352C26.4705 21.1474 26.4703 21.1595 26.4703 21.1717C26.4685 21.1805 26.4663 21.1894 26.4643 21.1983C26.4519 21.2545 26.4336 21.3367 26.4253 21.4342C26.4171 21.5001 26.4108 21.5673 26.4062 21.6389C26.4061 21.6401 26.406 21.6413 26.406 21.6425C26.3626 21.7713 26.3381 21.8911 26.3162 21.9979C26.3009 22.0723 26.2801 22.1742 26.263 22.2062C26.2353 22.2584 26.2137 22.3136 26.1988 22.3708C26.109 22.7139 25.891 23.0674 25.6602 23.4418L25.6275 23.4949C25.5405 23.6018 25.4603 23.7121 25.3842 23.8302C25.3725 23.8429 25.3486 23.8663 25.3305 23.884C25.2784 23.9349 25.2144 23.9975 25.1489 24.0788C25.1167 24.1162 25.085 24.1544 25.0541 24.1932L24.9652 24.2667C24.8798 24.3344 24.8106 24.4035 24.7546 24.4594C24.723 24.491 24.6872 24.5268 24.6695 24.5404C24.6661 24.543 24.6627 24.5456 24.6593 24.5483C24.3192 24.8178 23.8978 25.0665 23.3344 25.3303C22.9117 25.497 22.4177 25.6171 21.7835 25.7073C21.2263 25.7515 20.6386 25.6876 20.1302 25.6161C19.5969 25.4698 19.0359 25.2955 18.5223 25.0232C17.9263 24.6618 17.4769 24.3224 17.1111 23.957C16.6339 23.4262 16.2936 22.9596 16.041 22.4898C16.0385 22.4851 16.036 22.4805 16.0334 22.4759C16.0123 22.4385 15.9879 22.3794 15.962 22.3168C15.9282 22.2348 15.89 22.1422 15.8381 22.0428L15.7564 21.879L15.704 21.7057C15.6738 21.5995 15.6376 21.5082 15.6057 21.4274C15.585 21.3752 15.5618 21.3165 15.5537 21.2843C15.522 21.1169 15.4829 20.9486 15.4375 20.7834C15.3346 20.144 15.2573 19.5707 15.325 19.0454C15.3305 19.0026 15.3324 18.9595 15.3306 18.9163C15.3255 18.7947 15.3528 18.65 15.3843 18.4825C15.4094 18.3494 15.4379 18.1986 15.4533 18.0365C15.4541 18.0287 15.4547 18.0209 15.4552 18.0131C15.4602 17.9946 15.473 17.9579 15.4826 17.9302C15.5058 17.8634 15.5339 17.7827 15.5562 17.6871C15.5606 17.6726 15.5645 17.6585 15.5684 17.6444C15.571 17.6438 15.5742 17.643 15.5764 17.6424C15.607 17.6361 15.637 17.6281 15.6666 17.6181C15.6813 17.6133 15.7259 17.6048 15.7585 17.5986C15.8804 17.5753 16.0454 17.5438 16.2251 17.4545C16.3072 17.4179 16.4031 17.3843 16.5043 17.3488C16.7052 17.2783 16.9307 17.1993 17.1608 17.0628C17.8231 16.7758 18.3693 16.3517 18.9618 15.8689C18.9846 15.8503 19.0063 15.8304 19.0268 15.8093C19.1285 15.7047 19.2354 15.6044 19.3445 15.511C19.3502 15.5062 19.3557 15.5013 19.3612 15.4963C19.4772 15.3911 19.5642 15.2813 19.6342 15.1931C19.6697 15.1483 19.7033 15.1059 19.7277 15.0809C19.731 15.0775 19.7343 15.0741 19.7375 15.0707L19.9105 14.8866C19.9403 14.855 19.9673 14.8209 19.9912 14.7847L20.1322 14.5713C20.1354 14.5664 20.1385 14.5614 20.1417 14.5565C20.165 14.5193 20.2013 14.4722 20.2397 14.4222C20.3026 14.3405 20.3736 14.2482 20.4416 14.1345C20.7888 13.5723 21.0722 12.9352 21.3332 12.1302C21.337 12.1184 21.3406 12.1065 21.3438 12.0944C21.515 11.4625 21.6025 10.7757 21.6192 9.93311C21.6194 9.91996 21.6193 9.90675 21.6189 9.8936C21.5946 9.13416 21.4271 8.40911 21.2665 7.80003C21.2584 7.76956 21.2485 7.73965 21.2368 7.7104C21.0073 7.13886 20.7161 6.47327 20.2968 5.87024C20.2888 5.85871 20.2805 5.84744 20.2719 5.83636C19.7878 5.21632 19.3461 4.75741 18.8817 4.39209C18.8705 4.38336 18.8592 4.37493 18.8476 4.3668C18.2311 3.93516 17.7018 3.63788 17.1824 3.43171C17.0716 3.38616 16.9692 3.35864 16.8866 3.33639C16.8474 3.32583 16.7986 3.31273 16.7791 3.30486C16.7726 3.30222 16.766 3.29963 16.7594 3.29719L16.5653 3.22483C16.511 3.20457 16.4545 3.1906 16.397 3.18314C16.3431 3.17618 16.2893 3.1675 16.2368 3.15739C16.2243 3.155 16.212 3.15292 16.1994 3.15114C16.1854 3.14896 16.1453 3.13774 16.116 3.12951C16.0266 3.10442 15.9041 3.0701 15.757 3.05811C15.7472 3.0573 15.7373 3.05669 15.7273 3.05628C15.6234 3.05187 15.5251 3.0413 15.4269 3.02389C15.3899 3.01739 15.3524 3.01353 15.3148 3.01251L15.2006 3.00931C14.6934 2.99474 14.1696 2.97965 13.6353 3.11169C13.4228 3.13225 13.2444 3.19167 13.0973 3.24062C13.0365 3.26093 12.9737 3.28185 12.9321 3.29105C12.7966 3.31039 12.6644 3.35625 12.5303 3.43044C12.4952 3.44735 12.4637 3.46152 12.4344 3.47355C12.4201 3.47945 12.4061 3.48574 12.3922 3.49245C12.3796 3.49697 12.3668 3.50067 12.3541 3.50463C12.2727 3.53028 12.1539 3.5677 12.0249 3.64545C11.1735 4.09192 10.434 4.70952 9.88476 5.43291C9.87963 5.43966 9.87465 5.44646 9.86978 5.45337C8.70444 7.09935 8.74934 8.65966 8.82378 9.25832C8.8962 9.88055 9.0327 10.3003 9.0914 10.4804C9.09211 10.4847 9.09323 10.4891 9.09399 10.4934C9.09567 10.5031 9.09765 10.5126 9.09973 10.5223C9.10105 10.5284 9.10191 10.5346 9.10338 10.5407C9.10465 10.5461 9.10663 10.5512 9.10801 10.5565C9.11192 10.5713 9.11623 10.586 9.12106 10.6007C9.12446 10.611 9.12806 10.6212 9.13187 10.6314C9.13467 10.6387 9.1367 10.6462 9.13974 10.6536C9.14264 10.6606 9.14619 10.6671 9.14929 10.6739C9.15295 10.6821 9.15676 10.6903 9.16072 10.6983C9.16818 10.7136 9.17615 10.7286 9.18453 10.7432C9.18788 10.7491 9.19124 10.7549 9.19474 10.7605C9.19911 10.7678 9.20302 10.7754 9.20764 10.7824C9.20855 10.7844 9.20947 10.7864 9.21038 10.7885C9.29437 10.9729 9.4686 11.3557 9.8097 11.8278C10.2955 12.5298 11.2939 13.3768 12.6473 13.6579C12.6555 13.6596 12.6637 13.6612 12.6719 13.6626C12.9276 13.707 13.1899 13.7291 13.4544 13.7291C13.8642 13.7291 14.2795 13.6761 14.6839 13.5709C14.829 13.5433 14.9379 13.4864 14.9997 13.4526C15 13.4525 15.0003 13.4524 15.0005 13.4523C15.1667 13.4205 15.2938 13.352 15.3853 13.2835C15.3943 13.2795 15.4035 13.2758 15.4125 13.272C15.4968 13.2363 15.6249 13.182 15.7575 13.0777C16.025 12.9293 16.224 12.7297 16.3876 12.5656C16.4334 12.5197 16.4765 12.4764 16.516 12.4396C16.5631 12.3956 16.6044 12.3458 16.6389 12.2915C16.6395 12.2906 16.64 12.2899 16.6404 12.2893C16.6507 12.2801 16.6608 12.2707 16.6706 12.2611C16.774 12.1593 16.8328 12.0538 16.8671 11.9867C16.9384 11.9135 16.9944 11.8266 17.0315 11.7312L17.055 11.6706C17.0853 11.6263 17.1303 11.5565 17.1683 11.4649C17.2934 11.1755 17.3571 10.8946 17.4133 10.6465L17.4357 10.5486C17.4425 10.5191 17.4475 10.4892 17.4508 10.4591C17.4831 10.1614 17.4611 9.89355 17.4417 9.65721C17.4384 9.61725 17.4352 9.57774 17.4323 9.53879C17.4299 9.50538 17.4252 9.47221 17.4183 9.43941C17.3699 9.20693 17.2893 9.00391 17.2245 8.8407C17.1979 8.77377 17.1729 8.71054 17.1544 8.65656C17.1401 8.61467 17.1222 8.57409 17.1009 8.53535C16.438 7.33096 15.1525 6.93096 14.2794 7.16608C13.8732 7.27551 13.6326 7.69349 13.742 8.09969C13.8514 8.50595 14.2694 8.74635 14.6756 8.63711C14.8946 8.57821 15.421 8.69282 15.7385 9.22202C15.7615 9.28448 15.7853 9.34445 15.8085 9.403C15.8519 9.51243 15.8933 9.61654 15.9174 9.71003C15.9193 9.73384 15.9213 9.75786 15.9233 9.78203C15.9372 9.95154 15.9504 10.1125 15.9396 10.2563L15.9274 10.3099C15.8842 10.5007 15.8432 10.6815 15.7802 10.8359C15.7488 10.8817 15.7006 10.9552 15.6602 11.0541C15.66 11.0544 15.6598 11.0547 15.6595 11.055C15.6045 11.1215 15.5664 11.186 15.5404 11.2348C15.4953 11.2819 15.4529 11.3324 15.4135 11.3861C15.3774 11.4212 15.3426 11.4561 15.3086 11.4902C15.2031 11.596 15.0835 11.716 15.004 11.7531C14.942 11.7821 14.8843 11.8193 14.8323 11.8636C14.8274 11.8656 14.8225 11.8676 14.8176 11.8698C14.757 11.8954 14.6739 11.9306 14.5821 11.9872C14.5543 11.9953 14.5262 12.0044 14.4976 12.0144C14.418 12.0392 14.3536 12.0706 14.3084 12.0946C13.8536 12.2142 13.3828 12.2381 12.9447 12.164C12.033 11.9707 11.3598 11.3938 11.0594 10.9569C11.0559 10.9517 11.0522 10.9465 11.0485 10.9414C10.7936 10.5897 10.6656 10.3085 10.5968 10.1575C10.585 10.1314 10.5745 10.1086 10.5642 10.087C10.5559 10.0586 10.5476 10.0325 10.5401 10.0098C10.4882 9.85038 10.3916 9.55362 10.3367 9.08013C10.3364 9.07774 10.3361 9.07536 10.3358 9.07302C10.2833 8.65504 10.2539 7.5542 11.1057 6.34438C11.5245 5.7962 12.0942 5.32586 12.7541 4.98369C12.7649 4.97806 12.7756 4.97217 12.7862 4.96602C12.7947 4.96328 12.8032 4.96074 12.8118 4.95805C12.8668 4.94073 12.9471 4.91544 13.0357 4.87375C13.0951 4.84877 13.1561 4.82084 13.2215 4.78859C13.2231 4.78783 13.2247 4.78702 13.2263 4.7862C13.3595 4.75939 13.4754 4.72075 13.5789 4.68632C13.651 4.6623 13.7497 4.62939 13.7862 4.62807C13.845 4.62594 13.9034 4.61705 13.9601 4.60151C14.3023 4.50782 14.7172 4.5198 15.1567 4.53245L15.2197 4.53423C15.3553 4.55601 15.4908 4.57018 15.6314 4.57724C15.6482 4.58095 15.6803 4.58993 15.7047 4.59679C15.7749 4.61649 15.8612 4.64066 15.9646 4.65676C16.0128 4.66585 16.0617 4.67413 16.1107 4.68159L16.2188 4.72186C16.3201 4.76198 16.4144 4.78732 16.4908 4.80789C16.534 4.81952 16.583 4.83267 16.6036 4.84125C16.6078 4.84298 16.612 4.8447 16.6162 4.84638C17.0191 5.00583 17.4452 5.24628 17.9558 5.60252C18.3115 5.88506 18.6624 6.25287 19.0575 6.75708C19.3743 7.21742 19.6129 7.75844 19.8053 8.23457C19.9451 8.76874 20.0744 9.34105 20.0955 9.92351C20.0806 10.6206 20.0113 11.1794 19.878 11.6787C19.6566 12.3581 19.4227 12.8859 19.1425 13.3387C19.1399 13.3429 19.1373 13.3472 19.1348 13.3515C19.1127 13.3889 19.0735 13.4398 19.0321 13.4936C18.978 13.564 18.9168 13.6435 18.8567 13.7382L18.7559 13.8907L18.6318 14.0227C18.5551 14.1019 18.4941 14.1788 18.4402 14.2469C18.4053 14.2909 18.366 14.3404 18.3421 14.3638C18.2132 14.4746 18.087 14.5926 17.9663 14.7149C17.4639 15.1236 17.0059 15.4772 16.5175 15.6811C16.4776 15.6978 16.4392 15.7178 16.4027 15.7409C16.2999 15.8062 16.1609 15.8549 16.0001 15.9113C15.8723 15.9561 15.7275 16.0069 15.5795 16.0745C15.5725 16.0777 15.5655 16.081 15.5585 16.0845C15.54 16.0894 15.5016 16.0968 15.4726 16.1023C15.4033 16.1155 15.3194 16.1316 15.2257 16.16C15.2108 16.1634 15.1967 16.1671 15.1823 16.1708C15.1808 16.1692 15.1786 16.1671 15.1773 16.1656C15.1565 16.1421 15.1343 16.12 15.1108 16.0993C15.0993 16.0889 15.0696 16.0546 15.0479 16.0294C14.9668 15.9354 14.8569 15.8082 14.6895 15.697C14.6167 15.6442 14.5396 15.5779 14.4582 15.5079C14.2969 15.3694 14.1157 15.2137 13.8826 15.0827C13.3024 14.6521 12.6622 14.3913 11.948 14.1198C11.9204 14.1093 11.8921 14.1004 11.8635 14.0932C11.7241 14.0581 11.5835 14.0157 11.4457 13.9672C11.4393 13.965 11.4328 13.9628 11.4263 13.9607C11.277 13.9126 11.1384 13.8921 11.0269 13.8756C10.9704 13.8673 10.917 13.8593 10.8831 13.8507C10.8782 13.8495 10.8733 13.8483 10.8684 13.8471L10.6227 13.7895C10.5809 13.7797 10.5382 13.7734 10.4953 13.7708L10.24 13.7551C10.2339 13.7548 10.2278 13.7545 10.2217 13.7542C10.1781 13.7526 10.1192 13.7448 10.0569 13.7365C9.95438 13.7229 9.8385 13.7074 9.7056 13.7056C9.04443 13.6858 8.35136 13.7592 7.52454 13.9355C7.5123 13.9381 7.50016 13.941 7.48813 13.9442C6.85453 14.1123 6.21605 14.3799 5.47886 14.7864C5.46743 14.7927 5.45621 14.7993 5.44514 14.8062C4.80072 15.2059 4.25594 15.7141 3.808 16.1585C3.78565 16.1806 3.76463 16.2042 3.74523 16.229C3.36488 16.7136 2.93389 17.2987 2.62159 17.963C2.61565 17.9757 2.61006 17.9885 2.60478 18.0015C2.31004 18.7301 2.13348 19.3422 2.04913 19.9279C2.04715 19.9418 2.04547 19.9559 2.04425 19.97C1.97864 20.7189 1.98581 21.3258 2.06695 21.879C2.0829 21.9986 2.11042 22.1016 2.13266 22.1847C2.14308 22.2237 2.15608 22.2723 2.15897 22.2929C2.15988 22.2995 2.1609 22.306 2.16202 22.3126L2.19629 22.5169C2.20604 22.5749 2.22245 22.6316 2.2452 22.6858C2.26495 22.7328 2.2841 22.783 2.30202 22.835C2.30629 22.8475 2.31081 22.8595 2.31573 22.8717C2.32081 22.8848 2.33102 22.9248 2.33853 22.954C2.36159 23.0443 2.39317 23.1679 2.45675 23.3017C2.46081 23.3103 2.46508 23.3188 2.4695 23.3273C2.51754 23.4193 2.5574 23.5096 2.59132 23.6032C2.60422 23.6388 2.61971 23.6733 2.63779 23.7066L2.69248 23.8078C2.93339 24.2541 3.18211 24.7148 3.56333 25.1112C3.68739 25.2851 3.82811 25.4099 3.94414 25.5128C3.99213 25.5554 4.04159 25.5992 4.07038 25.6307C4.15493 25.7384 4.26081 25.8299 4.39224 25.9091C4.42286 25.9299 4.45155 25.9505 4.47953 25.972C4.4909 25.9807 4.50253 25.9891 4.51437 25.9972C4.52467 26.0058 4.53432 26.0152 4.54417 26.0242C4.60709 26.0819 4.69896 26.1661 4.83079 26.2389C5.6438 26.7533 6.54847 27.0851 7.44908 27.1987C7.45735 27.1998 7.46563 27.2006 7.47396 27.2014C7.6746 27.22 7.86843 27.2286 8.05536 27.2286C9.73886 27.2286 10.8593 26.5321 11.2925 26.2048C11.795 25.831 12.0902 25.5029 12.2169 25.3619C12.232 25.3497 12.2467 25.3368 12.261 25.3233C12.2639 25.3206 12.2663 25.3177 12.269 25.315C12.2788 25.3055 12.2881 25.2954 12.2974 25.2854C12.3074 25.2746 12.3171 25.2637 12.3263 25.2524C12.3306 25.2472 12.3356 25.2426 12.3398 25.2372C12.3448 25.2307 12.349 25.2239 12.3538 25.2173C12.3589 25.2102 12.364 25.203 12.3689 25.1958C12.3789 25.1812 12.3882 25.1663 12.397 25.1513C12.4002 25.1459 12.4033 25.1405 12.4063 25.135C12.4108 25.1268 12.416 25.1188 12.4201 25.1105C12.4213 25.1088 12.4226 25.107 12.4239 25.1052C12.5417 24.9402 12.7863 24.5978 13.0246 24.0661C13.3896 23.2943 13.6238 22.0061 13.1907 20.6937C13.188 20.6857 13.1853 20.6778 13.1824 20.6699C12.9544 20.049 12.5797 19.4635 12.0974 18.974C12.0008 18.8618 11.8969 18.7958 11.8366 18.7591C11.8364 18.759 11.8362 18.7588 11.836 18.7586C11.7253 18.6308 11.6027 18.555 11.4977 18.51C11.4898 18.5042 11.4821 18.4982 11.4743 18.4923C11.4011 18.4371 11.2898 18.3531 11.1328 18.2903C10.8708 18.1331 10.5988 18.0606 10.3753 18.001C10.3125 17.9842 10.2533 17.9684 10.2015 17.9526C10.14 17.9338 10.0723 17.9227 10.0079 17.9199C9.99531 17.9156 9.98261 17.9117 9.96982 17.9082C9.82961 17.8694 9.7087 17.8713 9.63344 17.875C9.53447 17.8499 9.43133 17.8449 9.33028 17.8604L9.26553 17.8704C9.21206 17.8663 9.12913 17.8622 9.03097 17.8751C8.71963 17.9113 8.44617 17.9959 8.20465 18.0706C8.17099 18.081 8.13767 18.0914 8.10461 18.1014C8.07521 18.1103 8.04642 18.1211 8.01829 18.1334C7.74386 18.2547 7.52251 18.408 7.32725 18.5433C7.29465 18.5658 7.26245 18.5881 7.23051 18.6099C7.20294 18.6287 7.17658 18.6492 7.1517 18.6715C6.97457 18.8297 6.83894 19.001 6.73001 19.1388C6.68537 19.1952 6.64323 19.2485 6.6057 19.2914C6.5766 19.3247 6.5504 19.3605 6.52749 19.3984C5.816 20.5747 6.11241 21.888 6.75256 22.5265C7.05044 22.8235 7.53266 22.8229 7.82979 22.525C8.12686 22.2271 8.1262 21.7448 7.82831 21.4478C7.66774 21.2876 7.50382 20.7745 7.80323 20.2348C7.84573 20.1839 7.8857 20.1334 7.9247 20.0841C7.99782 19.9916 8.06749 19.9036 8.13651 19.8359C8.15575 19.8226 8.17515 19.8092 8.19465 19.7957C8.33465 19.6987 8.4676 19.6067 8.59785 19.5438C8.6168 19.5379 8.63584 19.5321 8.65493 19.5261C8.84028 19.4688 9.01594 19.4144 9.17981 19.392C9.23537 19.3962 9.32327 19.4013 9.4294 19.3866C9.42986 19.3867 9.43037 19.3867 9.43082 19.3868C9.51548 19.4011 9.58982 19.4018 9.64471 19.3999C9.7085 19.4156 9.7738 19.4272 9.84038 19.4344C9.88877 19.4481 9.93615 19.4607 9.98256 19.4731C10.1269 19.5116 10.2906 19.5552 10.3626 19.6056C10.4188 19.6449 10.4801 19.6763 10.5445 19.6991C10.5487 19.7023 10.5528 19.7055 10.5571 19.7087C10.6096 19.7482 10.6816 19.8026 10.7764 19.8538C10.7971 19.8736 10.8186 19.8931 10.8413 19.9126C10.9027 19.9694 10.9621 20.0096 11.0057 20.0368C11.3367 20.3708 11.5929 20.7665 11.7479 21.1833C12.0364 22.0693 11.8734 22.9409 11.6452 23.4195C11.6425 23.4252 11.6399 23.431 11.6373 23.4368C11.4602 23.8335 11.2807 24.0849 11.1842 24.2199C11.1676 24.2431 11.1531 24.2635 11.1396 24.2832C11.1191 24.3047 11.1006 24.325 11.0845 24.3429C10.9724 24.4676 10.7639 24.6997 10.3813 24.984C10.3795 24.9853 10.3776 24.9867 10.3758 24.9881C10.0397 25.2426 9.10039 25.8187 7.62732 25.6857C6.9438 25.5975 6.2517 25.3392 5.62491 24.9386C5.6146 24.9321 5.60414 24.9257 5.59357 24.9196C5.58687 24.9136 5.58032 24.9073 5.57362 24.9012C5.53101 24.8621 5.4687 24.8051 5.38811 24.7491C5.33438 24.7085 5.27802 24.6686 5.22028 24.6302C5.21952 24.6297 5.21881 24.6292 5.21804 24.6287C5.12826 24.5268 5.03681 24.4457 4.9553 24.3733C4.89838 24.3228 4.82048 24.2537 4.80108 24.2228C4.7698 24.1728 4.73283 24.1266 4.69088 24.0851C4.43901 23.836 4.24187 23.4708 4.03311 23.0842L4.00289 23.0283C3.95399 22.8997 3.89844 22.7752 3.8342 22.6497C3.82902 22.6334 3.82079 22.6013 3.8146 22.5769C3.79652 22.5061 3.77433 22.4193 3.73644 22.3216C3.71999 22.2746 3.70278 22.2281 3.685 22.1827L3.66591 22.0688C3.65001 21.9616 3.62483 21.8675 3.60451 21.7914C3.59355 21.7504 3.57989 21.6992 3.57704 21.6774C3.57643 21.6725 3.57577 21.6676 3.57501 21.6628C3.51158 21.2337 3.50681 20.7445 3.56003 20.1247C3.62701 19.6746 3.77006 19.1866 4.00904 18.5929C4.24908 18.0888 4.59841 17.6116 4.91463 17.2068C5.30803 16.8181 5.73952 16.4194 6.23215 16.111C6.84254 15.7756 7.36122 15.5561 7.86102 15.4216C8.55951 15.2737 9.13375 15.2123 9.66645 15.2286C9.67173 15.2288 9.67706 15.2289 9.68234 15.229C9.72541 15.2294 9.78893 15.2378 9.85617 15.2467C9.94397 15.2584 10.0432 15.2716 10.1551 15.2763L10.3378 15.2875L10.5143 15.3288C10.6211 15.3556 10.718 15.3699 10.8038 15.3826C10.8596 15.3909 10.9223 15.4002 10.9542 15.4092C11.1165 15.4659 11.2819 15.5162 11.4466 15.559C12.0513 15.7895 12.5862 16.0092 13.0073 16.3306C13.0417 16.3569 13.0783 16.3802 13.1166 16.4002C13.2246 16.4566 13.3362 16.5525 13.4655 16.6636C13.5681 16.7518 13.6845 16.8518 13.8171 16.9462C13.8234 16.9506 13.8298 16.9551 13.8362 16.9593C13.8498 16.9729 13.8754 17.0026 13.8947 17.025C13.9407 17.0783 13.9964 17.1428 14.0676 17.2096C14.0781 17.2209 14.0885 17.2314 14.0989 17.242C14.0982 17.2442 14.0975 17.2471 14.0969 17.249C14.0868 17.2791 14.0787 17.3096 14.0725 17.3407C14.0693 17.3559 14.0544 17.3987 14.0436 17.4299C14.0028 17.547 13.9477 17.7055 13.9352 17.9057C13.9258 17.9952 13.907 18.0951 13.8871 18.2005C13.8477 18.4095 13.8035 18.6442 13.8066 18.9115C13.7239 19.6291 13.8181 20.3141 13.9402 21.0686C13.9449 21.0975 13.9512 21.1261 13.9592 21.1542C13.9988 21.2942 14.0323 21.4373 14.0589 21.5795C14.0602 21.5863 14.0616 21.5931 14.0631 21.5999C14.0961 21.7532 14.1476 21.8834 14.189 21.988C14.21 22.0411 14.2298 22.0912 14.2391 22.1246C14.2406 22.1297 14.2421 22.1349 14.2436 22.14L14.3167 22.3818C14.3291 22.4229 14.345 22.4629 14.3641 22.5013L14.4783 22.7302C14.481 22.7357 14.4838 22.7412 14.4867 22.7466C14.507 22.785 14.5297 22.8398 14.5536 22.8979C14.593 22.9934 14.6376 23.1015 14.7024 23.2175C15.0163 23.7999 15.4263 24.3638 15.9923 24.9914C16.0006 25.0006 16.0091 25.0096 16.0178 25.0184C16.4797 25.4829 17.0306 25.902 17.7517 26.3376C17.7629 26.3444 17.7743 26.3509 17.7859 26.3571C18.4544 26.7152 19.1667 26.9329 19.7755 27.0987C19.8059 27.1069 19.8368 27.1133 19.8679 27.1178C20.328 27.1834 20.852 27.2455 21.396 27.2455C21.5729 27.2455 21.752 27.2389 21.9317 27.2238C21.9457 27.2226 21.9597 27.221 21.9737 27.2191C22.7525 27.1097 23.3707 26.9566 23.9191 26.7373C23.9322 26.7321 23.9452 26.7264 23.958 26.7205C24.6399 26.4028 25.1621 26.0929 25.601 25.7458C25.6959 25.6726 25.7709 25.5976 25.8314 25.5372C25.86 25.5085 25.8957 25.4728 25.9121 25.46C25.9177 25.4556 25.9232 25.4513 25.9286 25.4467L26.0884 25.3147C26.1332 25.2776 26.1737 25.2355 26.209 25.1892C26.2414 25.1467 26.2755 25.1048 26.3104 25.0646C26.3189 25.0548 26.327 25.045 26.335 25.0348C26.3438 25.0238 26.3736 24.9947 26.3953 24.9735C26.4619 24.9084 26.5531 24.8192 26.637 24.6977C26.6426 24.6896 26.648 24.6814 26.6533 24.6731C26.7087 24.5858 26.767 24.5061 26.8314 24.4293C26.8556 24.4006 26.8776 24.3701 26.8973 24.3381L26.9568 24.2414C27.2232 23.8093 27.4983 23.3632 27.6511 22.8342C27.7396 22.6398 27.7773 22.4556 27.8084 22.3037C27.8213 22.241 27.8345 22.1763 27.8473 22.1357C27.8984 22.0086 27.9248 21.871 27.9276 21.7174C27.9304 21.6798 27.9339 21.6451 27.9383 21.612C27.9403 21.5973 27.9418 21.5826 27.9428 21.5678C27.9452 21.5544 27.9485 21.5414 27.9514 21.5283C27.9699 21.4451 27.9969 21.3234 27.9941 21.173C28.0333 20.2122 27.8683 19.2628 27.5165 18.4255Z" fill="currentColor" />
  </symbol>
  <symbol id="ico-menu-paneli" viewBox="0 0 30 30" fill="none" xmlns="http://www.w3.org/2000/svg">
    <rect x="9" y="7" width="15" height="4" rx="1" transform="rotate(90 9 7)" stroke="currentColor" stroke-width="2" />
    <rect x="26" y="7" width="15" height="13" rx="1" transform="rotate(90 26 7)" stroke="currentColor" stroke-width="2" />
  </symbol>
  <symbol id="ico-menu-laminat" viewBox="0 0 30 30" fill="none" xmlns="http://www.w3.org/2000/svg">
    <rect x="9.34512" y="3.9" width="9.93011" height="5.4453" rx="1.1" transform="rotate(90 9.34512 3.9)" stroke="currentColor" stroke-width="1.8" />
    <rect x="9.34512" y="16.8868" width="9.93011" height="5.4453" rx="1.1" transform="rotate(90 9.34512 16.8868)" stroke="currentColor" stroke-width="1.8" />
    <rect x="26.1" y="3.9" width="9.93011" height="5.4453" rx="1.1" transform="rotate(90 26.1 3.9)" stroke="currentColor" stroke-width="1.8" />
    <rect x="26.1" y="16.8868" width="9.93011" height="5.4453" rx="1.1" transform="rotate(90 26.1 16.8868)" stroke="currentColor" stroke-width="1.8" />
    <rect x="17.496" y="3.9" width="4.06506" height="5.4453" rx="1.1" transform="rotate(90 17.496 3.9)" stroke="currentColor" stroke-width="1.8" />
    <rect x="17.496" y="10.6031" width="9.93011" height="5.4453" rx="1.1" transform="rotate(90 17.496 10.6031)" stroke="currentColor" stroke-width="1.8" />
    <rect x="17.496" y="23.171" width="3.64613" height="5.4453" rx="1.1" transform="rotate(90 17.496 23.171)" stroke="currentColor" stroke-width="1.8" />
  </symbol>
  <symbol id="ico-menu-oboi" viewBox="0 0 30 30" fill="none" xmlns="http://www.w3.org/2000/svg">
    <path d="M26.2076 5.41346H10.7588C9.89591 4.1219 8.42444 3.26953 6.75718 3.26953C4.10604 3.26953 1.94922 5.42496 1.94922 8.07452V21.9253C1.94922 24.5749 4.10604 26.7305 6.75718 26.7305C8.31296 26.7305 9.69833 25.9882 10.5777 24.8395H26.2076C27.1679 24.8395 27.9493 24.0589 27.9493 23.0997V7.15351C27.9493 6.19402 27.1679 5.41346 26.2076 5.41346ZM26.4234 16.9131L20.0179 23.3161H16.671L26.4234 13.568V16.9131ZM11.5651 11.7988L16.4292 6.9369H19.9524L11.5651 15.3204V11.7988ZM11.5651 17.476L22.1088 6.9369H25.3588L11.5651 20.7244V17.476ZM14.2726 6.9369L11.5651 9.64319V8.07452C11.5651 7.68275 11.5181 7.30169 11.4291 6.9369H14.2726ZM6.75718 4.79297C8.56706 4.79297 10.0395 6.26504 10.0395 8.07452V18.4173C9.17961 17.6131 8.02493 17.1203 6.75718 17.1203C5.48943 17.1203 4.33475 17.6131 3.47504 18.4173V8.07452C3.47504 6.26504 4.9473 4.79297 6.75718 4.79297V4.79297ZM6.75718 25.2071C4.9473 25.2071 3.47504 23.7348 3.47504 21.9253C3.47504 20.1158 4.9473 18.6438 6.75718 18.6438C8.56706 18.6438 10.0395 20.1158 10.0395 21.9253C10.0395 23.7348 8.56706 25.2071 6.75718 25.2071ZM11.4435 23.0017L26.4234 8.0281V11.4124L14.5146 23.3161H11.3598C11.3912 23.2127 11.4191 23.1078 11.4435 23.0017ZM26.2076 23.3161H22.1743L26.4234 19.0687V23.0997C26.4234 23.2191 26.3266 23.3161 26.2076 23.3161Z" fill="currentColor" />
    <path d="M6.75726 19.8198C5.59444 19.8198 4.64844 20.7644 4.64844 21.9253C4.64844 23.0863 5.59444 24.0309 6.75726 24.0309C7.92007 24.0309 8.86607 23.0863 8.86607 21.9253C8.86607 20.7644 7.92007 19.8198 6.75726 19.8198ZM6.75726 22.5075C6.43571 22.5075 6.17426 22.2462 6.17426 21.9253C6.17426 21.6043 6.43571 21.3433 6.75726 21.3433C7.07881 21.3433 7.34025 21.6043 7.34025 21.9253C7.34025 22.2462 7.07881 22.5075 6.75726 22.5075Z" fill="currentColor" />
  </symbol>
  <symbol id="ico-menu-santehnika" viewBox="0 0 30 30" fill="none" xmlns="http://www.w3.org/2000/svg">
    <path d="M26.002 17.148C26.002 15.9353 25.0154 14.9487 23.8027 14.9487H5.70281V5.95981C5.70281 5.07085 6.42606 4.34766 7.31502 4.34766H8.79254C9.04213 4.34766 9.28021 4.45479 9.44579 4.64154L10.1216 5.40386C10.0811 5.6003 10.0598 5.80371 10.0598 6.01192V6.89585C9.7983 6.98843 9.61061 7.23726 9.61061 7.53051C9.61061 7.90264 9.91231 8.20433 10.2844 8.20433H15.8591C16.2312 8.20433 16.5329 7.90264 16.5329 7.53051C16.5329 7.23726 16.3452 6.98843 16.0837 6.89585V6.01192C16.0837 4.35112 14.7326 3 13.0718 3C12.1418 3 11.3092 3.42379 10.7562 4.08823L10.4542 3.74763C10.0331 3.27245 9.42742 3 8.7925 3H7.31502C5.68296 3 4.35516 4.32776 4.35516 5.95981V15.0385C4.35516 15.0646 4.357 15.0902 4.35987 15.1156C3.56247 15.4461 3 16.2325 3 17.148C3 18.0618 3.56027 18.8469 4.35516 19.1786V20.3964C4.35516 22.8083 6.31739 24.7706 8.72929 24.7706H9.11441V25.3262C9.11441 25.6983 9.4161 26 9.78823 26C10.1604 26 10.4621 25.6983 10.4621 25.3262V24.7706H18.5399V25.3262C18.5399 25.6983 18.8416 26 19.2137 26C19.5859 26 19.8876 25.6983 19.8876 25.3262V24.7706H20.2727C22.6846 24.7706 24.6468 22.8083 24.6468 20.3964V19.1786C25.4418 18.8469 26.002 18.0617 26.002 17.148ZM13.0717 4.34761C13.9894 4.34761 14.736 5.09421 14.736 6.01188V6.85663H11.4074V6.01192C11.4074 5.09421 12.154 4.34761 13.0717 4.34761V4.34761ZM20.2727 23.4229H8.72929C7.06049 23.4229 5.70281 22.0652 5.70281 20.3964V19.3473H23.2992V20.3964C23.2992 22.0652 21.9415 23.4229 20.2727 23.4229ZM23.8027 17.9997H5.19933C4.72972 17.9997 4.34766 17.6176 4.34766 17.148C4.34766 16.6784 4.72972 16.2963 5.19933 16.2963H23.8027C24.2723 16.2963 24.6544 16.6784 24.6544 17.148C24.6544 17.6176 24.2723 17.9997 23.8027 17.9997Z" fill="currentColor" />
    <path d="M16.3358 12.8009C16.2784 12.5243 16.0543 12.3087 15.7743 12.2661C15.4963 12.2239 15.2132 12.3672 15.0812 12.6149C14.949 12.863 14.9867 13.1764 15.176 13.3849C15.365 13.593 15.6732 13.6628 15.9329 13.5547C16.2244 13.4335 16.4004 13.112 16.3358 12.8009V12.8009Z" fill="currentColor" />
    <path d="M13.6405 12.8009C13.5831 12.5243 13.359 12.3087 13.079 12.2661C12.8011 12.2239 12.5179 12.3672 12.3859 12.6149C12.2537 12.863 12.2913 13.1764 12.4807 13.3849C12.6698 13.5931 12.9778 13.6631 13.2376 13.5547C13.529 13.4332 13.7052 13.1122 13.6405 12.8009Z" fill="currentColor" />
    <path d="M10.9452 12.8009C10.8878 12.5244 10.6636 12.3087 10.3836 12.2661C10.1058 12.2239 9.82261 12.3672 9.69059 12.6149C9.55838 12.863 9.59603 13.1764 9.78537 13.3849C9.97431 13.5929 10.2826 13.6628 10.5423 13.5547C10.8337 13.4335 11.0098 13.1119 10.9452 12.8009Z" fill="currentColor" />
    <path d="M16.3457 10.1707C16.3166 9.8903 16.1127 9.65258 15.8389 9.58376C15.5666 9.51525 15.2705 9.6285 15.1149 9.86295C14.9597 10.0968 14.9657 10.4125 15.1339 10.6382C15.3024 10.864 15.601 10.9634 15.8709 10.8813C16.174 10.7891 16.3779 10.4869 16.3457 10.1707V10.1707Z" fill="currentColor" />
    <path d="M13.6503 10.1707C13.6212 9.8903 13.4173 9.65262 13.1436 9.58375C12.871 9.5152 12.5754 9.62872 12.4195 9.86294C12.2636 10.0972 12.2713 10.4118 12.4386 10.6381C12.6057 10.8642 12.9066 10.9636 13.1756 10.8818C13.4786 10.7896 13.6825 10.4864 13.6503 10.1707Z" fill="currentColor" />
    <path d="M10.955 10.1707C10.9259 9.89039 10.7218 9.65258 10.4482 9.58376C10.1759 9.51525 9.87973 9.6285 9.72417 9.86295C9.56851 10.0975 9.5757 10.4116 9.74322 10.6381C9.91037 10.8642 10.2112 10.9636 10.4802 10.8818C10.7832 10.7896 10.9871 10.4862 10.955 10.1707Z" fill="currentColor" />
  </symbol>
  <symbol id="ico-menu-mebel" viewBox="0 0 30 30" fill="none" xmlns="http://www.w3.org/2000/svg">
    <path d="M27.6531 10.3044V9.79297C27.6531 7.15016 25.5053 5 22.8652 5H7.13484C4.49379 5 2.34516 7.1501 2.34516 9.79297V10.3045C1.04244 10.593 0 11.8101 0 13.1736C0 14.371 0.631465 15.3543 1.67584 15.8302V24.3945C1.67584 24.7181 1.93816 24.9805 2.26178 24.9805H5.27795C5.60156 24.9805 5.86389 24.7181 5.86389 24.3945V22.586H12.3683C12.6919 22.586 12.9543 22.3237 12.9543 22C12.9543 21.6764 12.6919 21.4141 12.3683 21.4141H5.86389V19.8189H24.1361V21.4141H17.63C17.3064 21.4141 17.0441 21.6764 17.0441 22C17.0441 22.3237 17.3064 22.586 17.63 22.586H24.1361V24.3945C24.1361 24.7181 24.3984 24.9805 24.7221 24.9805H27.7382C28.0618 24.9805 28.3242 24.7181 28.3242 24.3945V15.83C29.3685 15.3538 30 14.3704 30 13.1736C30 11.81 28.9568 10.5928 27.6531 10.3044ZM7.13484 6.17188H22.8652C24.8591 6.17188 26.4813 7.79627 26.4813 9.79297V10.2987C25.1449 10.5712 24.1361 11.7566 24.1361 13.1736V16.1176C24.0889 16.0887 24.0407 16.0604 23.9909 16.0331C23.3173 15.6638 22.4292 15.4529 21.4901 15.4395C21.4845 15.4394 21.4789 15.4394 21.4733 15.4395C20.5334 15.4529 19.6448 15.6638 18.9711 16.0331C18.6814 16.1919 18.4373 16.3786 18.2398 16.587C18.0424 16.3786 17.7985 16.1919 17.509 16.0331C16.8357 15.6638 15.9473 15.453 15.0076 15.4395C15.002 15.4394 14.9964 15.4394 14.9907 15.4395C14.0517 15.4529 13.1635 15.6638 12.49 16.0331C12.2004 16.1919 11.9564 16.3786 11.7589 16.587C11.5616 16.3786 11.3177 16.1919 11.0282 16.0331C10.3549 15.6638 9.46652 15.453 8.52674 15.4395C8.52111 15.4394 8.51555 15.4394 8.50992 15.4395C7.57019 15.4529 6.6818 15.6638 6.0085 16.0331C5.95893 16.0603 5.91088 16.0885 5.86389 16.1173V13.1735C5.86389 11.7564 4.85437 10.5709 3.51703 10.2986V9.79291C3.51703 7.79627 5.14002 6.17188 7.13484 6.17188V6.17188ZM5.86389 18.0075C5.86389 17.1274 7.22994 16.632 8.51836 16.6113C9.80678 16.632 11.1728 17.1274 11.1728 18.0075V18.6471H5.86389V18.0075ZM17.6537 18.6471H12.3448V18.0075C12.3448 17.1593 13.6929 16.6323 14.9992 16.6113C16.2877 16.6319 17.6537 17.1273 17.6537 18.0075V18.6471ZM24.1361 18.6471H18.8255V18.0075C18.8255 17.1593 20.1745 16.6323 21.4817 16.6113C22.788 16.6323 24.1362 17.1593 24.1362 18.0075V18.6471H24.1361ZM4.69201 23.8086H2.84771V15.4251C2.84771 15.166 2.67756 14.9376 2.42924 14.8636C1.6302 14.6253 1.17188 14.0093 1.17188 13.1736C1.17188 12.3419 1.92422 11.4116 2.93109 11.4116C3.90205 11.4116 4.69201 12.202 4.69201 13.1736V23.8086ZM27.5705 14.8637C27.3223 14.9379 27.1523 15.1661 27.1523 15.4251V23.8086H25.308V13.1736C25.308 12.202 26.0972 11.4116 27.0672 11.4116C28.075 11.4116 28.8281 12.3418 28.8281 13.1736C28.8281 14.0088 28.3697 14.6248 27.5705 14.8637Z" fill="currentColor" />
    <path d="M9.07471 12.5955C9.39832 12.5955 9.66064 12.3331 9.66064 12.0095V12.0062C9.66064 11.6826 9.39832 11.4219 9.07471 11.4219C8.75109 11.4219 8.48877 11.6858 8.48877 12.0095C8.48877 12.3331 8.75109 12.5955 9.07471 12.5955Z" fill="currentColor" />
    <path d="M12.0376 12.5955C12.3612 12.5955 12.6235 12.3331 12.6235 12.0095V12.0062C12.6235 11.6826 12.3612 11.4219 12.0376 11.4219C11.714 11.4219 11.4517 11.6858 11.4517 12.0095C11.4517 12.3331 11.714 12.5955 12.0376 12.5955Z" fill="currentColor" />
    <path d="M14.999 12.5955C15.3226 12.5955 15.585 12.3331 15.585 12.0095V12.0062C15.585 11.6826 15.3226 11.4219 14.999 11.4219C14.6754 11.4219 14.4131 11.6858 14.4131 12.0095C14.4131 12.3331 14.6754 12.5955 14.999 12.5955Z" fill="currentColor" />
    <path d="M17.9624 12.5955C18.286 12.5955 18.5483 12.3331 18.5483 12.0095V12.0062C18.5483 11.6826 18.286 11.4219 17.9624 11.4219C17.6388 11.4219 17.3765 11.6858 17.3765 12.0095C17.3765 12.3331 17.6388 12.5955 17.9624 12.5955Z" fill="currentColor" />
    <path d="M20.9238 12.5955C21.2474 12.5955 21.5098 12.3331 21.5098 12.0095V12.0062C21.5098 11.6826 21.2474 11.4219 20.9238 11.4219C20.6002 11.4219 20.3379 11.6858 20.3379 12.0095C20.3379 12.3331 20.6002 12.5955 20.9238 12.5955Z" fill="currentColor" />
    <path d="M7.59326 9.30818C7.91687 9.30818 8.1792 9.04586 8.1792 8.72225V8.71727C8.1792 8.39365 7.91687 8.13379 7.59326 8.13379C7.26965 8.13379 7.00732 8.39863 7.00732 8.72219C7.00732 9.04574 7.26965 9.30818 7.59326 9.30818Z" fill="currentColor" />
    <path d="M10.5566 9.30818C10.8803 9.30818 11.1426 9.04586 11.1426 8.72225V8.71727C11.1426 8.39365 10.8803 8.13379 10.5566 8.13379C10.233 8.13379 9.9707 8.39863 9.9707 8.72219C9.9707 9.04574 10.233 9.30818 10.5566 9.30818Z" fill="currentColor" />
    <path d="M13.5176 9.30818C13.8412 9.30818 14.1035 9.04586 14.1035 8.72225V8.71727C14.1035 8.39365 13.8412 8.13379 13.5176 8.13379C13.194 8.13379 12.9316 8.39863 12.9316 8.72219C12.9316 9.04574 13.194 9.30818 13.5176 9.30818Z" fill="currentColor" />
    <path d="M16.481 9.30818C16.8046 9.30818 17.0669 9.04586 17.0669 8.72225V8.71727C17.0669 8.39365 16.8046 8.13379 16.481 8.13379C16.1573 8.13379 15.895 8.39863 15.895 8.72219C15.895 9.04574 16.1573 9.30818 16.481 9.30818Z" fill="currentColor" />
    <path d="M19.4438 9.30818C19.7675 9.30818 20.0298 9.04586 20.0298 8.72225V8.71727C20.0298 8.39365 19.7675 8.13379 19.4438 8.13379C19.1202 8.13379 18.8579 8.39863 18.8579 8.72219C18.8579 9.04574 19.1202 9.30818 19.4438 9.30818Z" fill="currentColor" />
    <path d="M22.4053 9.30818C22.7289 9.30818 22.9912 9.04586 22.9912 8.72225V8.71727C22.9912 8.39365 22.7289 8.13379 22.4053 8.13379C22.0817 8.13379 21.8193 8.39863 21.8193 8.72219C21.8193 9.04574 22.0817 9.30818 22.4053 9.30818Z" fill="currentColor" />
    <path d="M14.999 21.4141C14.6754 21.4141 14.4131 21.6764 14.4131 22C14.4131 22.3236 14.6754 22.5859 14.999 22.5859H15.0024C15.326 22.5859 15.5867 22.3236 15.5867 22C15.5867 21.6764 15.3226 21.4141 14.999 21.4141Z" fill="currentColor" />
  </symbol>
  <symbol id="ico-catalog-arrow" viewBox="0 0 29 16" fill="none" xmlns="http://www.w3.org/2000/svg">
    <path d="M28.7071 8.70711C29.0976 8.31658 29.0976 7.68342 28.7071 7.29289L22.3431 0.928932C21.9526 0.538408 21.3195 0.538408 20.9289 0.928932C20.5384 1.31946 20.5384 1.95262 20.9289 2.34315L26.5858 8L20.9289 13.6569C20.5384 14.0474 20.5384 14.6805 20.9289 15.0711C21.3195 15.4616 21.9526 15.4616 22.3431 15.0711L28.7071 8.70711ZM0 9H28V7H0V9Z" fill="#F9B043" />
  </symbol>
  <symbol id="ico-fb" viewBox="0 0 21 21" fill="none" xmlns="http://www.w3.org/2000/svg">
    <path d="M21 10.5C21 4.70039 16.2996 0 10.5 0C4.70039 0 0 4.70039 0 10.5C0 16.2996 4.70039 21 10.5 21C10.5615 21 10.623 21 10.6846 20.9959V12.8256H8.42871V10.1965H10.6846V8.26055C10.6846 6.01699 12.0545 4.79473 14.0561 4.79473C15.0158 4.79473 15.8402 4.86445 16.0781 4.89727V7.24336H14.7C13.6131 7.24336 13.3998 7.76016 13.3998 8.51894V10.1924H16.0043L15.6639 12.8215H13.3998V20.5939C17.7885 19.3348 21 15.2947 21 10.5Z" fill="currentColor" />
  </symbol>
  <symbol id="ico-vk" viewBox="0 0 21 21" fill="none" xmlns="http://www.w3.org/2000/svg">
    <path fill-rule="evenodd" clip-rule="evenodd" d="M21 10.5C21 16.299 16.299 21 10.5 21C4.70101 21 0 16.299 0 10.5C0 4.70101 4.70101 0 10.5 0C16.299 0 21 4.70101 21 10.5ZM10.9275 15.1053H10.1034C10.1034 15.1053 8.28499 15.2147 6.68373 13.5476C4.93741 11.7292 3.39511 8.12091 3.39511 8.12091C3.39511 8.12091 3.30621 7.88433 3.40279 7.76997C3.51135 7.64138 3.80708 7.63314 3.80708 7.63314L5.77707 7.62023C5.77707 7.62023 5.96274 7.6513 6.09564 7.74882C6.20513 7.8293 6.26652 7.97979 6.26652 7.97979C6.26652 7.97979 6.5849 8.785 7.0066 9.51348C7.8296 10.9356 8.21293 11.2467 8.49238 11.0943C8.89948 10.8722 8.77744 9.08392 8.77744 9.08392C8.77744 9.08392 8.78493 8.4348 8.57249 8.14581C8.40796 7.92176 8.09763 7.85644 7.96062 7.8381C7.84982 7.82331 8.03175 7.56595 8.26758 7.45046C8.62209 7.27677 9.24818 7.26685 9.98789 7.27452C10.5642 7.28032 10.73 7.31626 10.9554 7.37073C11.4782 7.49697 11.4619 7.90149 11.4267 8.77428C11.4162 9.03508 11.404 9.33769 11.404 9.68717C11.404 9.76581 11.4017 9.84962 11.3994 9.93585C11.3872 10.3828 11.3732 10.8946 11.6674 11.0848C11.8182 11.1821 12.1873 11.0994 13.1105 9.53182C13.5481 8.78893 13.8762 7.9154 13.8762 7.9154C13.8762 7.9154 13.9479 7.75967 14.0593 7.69285C14.1732 7.62472 14.3269 7.64568 14.3269 7.64568L16.4 7.63277C16.4 7.63277 17.023 7.55846 17.1238 7.83959C17.2296 8.13476 16.891 8.82393 16.044 9.95277C15.2397 11.0248 14.8489 11.4188 14.8856 11.7678C14.9124 12.0223 15.1665 12.2528 15.6532 12.7046C16.6737 13.6518 16.9457 14.1491 17.0103 14.2673C17.0155 14.2769 17.0194 14.284 17.0222 14.2886C17.4789 15.0459 16.5157 15.1053 16.5157 15.1053L14.6745 15.1309C14.6745 15.1309 14.2788 15.2093 13.7581 14.8516C13.4858 14.6647 13.2196 14.3595 12.9659 14.0687C12.5781 13.6242 12.2197 13.2133 11.9139 13.3103C11.4007 13.4731 11.4168 14.5789 11.4168 14.5789C11.4168 14.5789 11.4205 14.8151 11.3035 14.9409C11.1764 15.0779 10.9275 15.1053 10.9275 15.1053Z" fill="currentColor" />
  </symbol>
  <symbol id="ico-youtube" viewBox="0 0 21 21" fill="none" xmlns="http://www.w3.org/2000/svg">
    <path d="M5.51611 11.2748H6.34859V15.7805H7.13617V11.2748H7.98412V10.5369H5.51611V11.2748Z" fill="currentColor" />
    <path d="M12.1754 11.8256C11.9151 11.8256 11.6721 11.9678 11.4437 12.2493V10.5366H10.7358V15.7805H11.4437V15.402C11.6807 15.6944 11.9234 15.8344 12.1754 15.8344C12.4571 15.8344 12.6466 15.6862 12.7411 15.3953C12.7886 15.2297 12.8128 14.9695 12.8128 14.6079V13.0521C12.8128 12.6822 12.7886 12.4239 12.7411 12.2669C12.6468 11.9739 12.4569 11.8256 12.1754 11.8256ZM12.1045 14.6634C12.1045 15.0166 12.001 15.1906 11.7965 15.1906C11.6802 15.1906 11.5619 15.1349 11.4435 15.0163V12.6351C11.5619 12.518 11.6802 12.4626 11.7965 12.4626C12.0008 12.4626 12.1045 12.6435 12.1045 12.9958V14.6634Z" fill="currentColor" />
    <path d="M9.4148 14.8595C9.25776 15.0814 9.10931 15.1908 8.96709 15.1908C8.87256 15.1908 8.81864 15.1351 8.80145 15.0251C8.79501 15.0024 8.79501 14.916 8.79501 14.7502V11.8735H8.08691V14.9626C8.08691 15.2387 8.11076 15.4252 8.14943 15.5438C8.22054 15.7418 8.3778 15.8346 8.60552 15.8346C8.86612 15.8346 9.13337 15.6774 9.4148 15.3547V15.7809H10.1233V11.8735H9.4148V14.8595Z" fill="currentColor" />
    <path d="M10.0227 8.26389C10.2533 8.26389 10.3639 8.08106 10.3639 7.71584V6.05496C10.3639 5.68953 10.2533 5.50757 10.0227 5.50757C9.79201 5.50757 9.68115 5.68975 9.68115 6.05496V7.71584C9.68115 8.08128 9.79201 8.26389 10.0227 8.26389Z" fill="currentColor" />
    <path d="M10.5 0C4.70099 0 0 4.70099 0 10.5C0 16.299 4.70099 21 10.5 21C16.299 21 21 16.299 21 10.5C21 4.70099 16.299 0 10.5 0ZM11.6678 4.9111H12.3813V7.81823C12.3813 7.98602 12.3813 8.07302 12.3899 8.09644C12.4056 8.20729 12.4619 8.26401 12.5577 8.26401C12.7008 8.26401 12.8509 8.15316 13.0097 7.92908V4.9111H13.7251V8.85953H13.0097V8.429C12.7248 8.75555 12.4533 8.91388 12.1922 8.91388C11.9619 8.91388 11.803 8.82043 11.7312 8.62063C11.6917 8.50097 11.6678 8.31213 11.6678 8.03349V4.9111ZM8.96566 6.1986C8.96566 5.77645 9.03741 5.46795 9.18952 5.26837C9.38738 4.99832 9.66602 4.86341 10.0226 4.86341C10.381 4.86341 10.6594 4.99832 10.8573 5.26837C11.0072 5.46773 11.079 5.77645 11.079 6.1986V7.58127C11.079 8.00105 11.0072 8.31235 10.8573 8.50978C10.6594 8.77918 10.381 8.91388 10.0226 8.91388C9.66602 8.91388 9.38738 8.77918 9.18952 8.50978C9.03741 8.31235 8.96566 8.00084 8.96566 7.58127V6.1986ZM7.05235 3.56108L7.61564 5.64175L8.15681 3.56108H8.95921L8.00471 6.71377V8.85975H7.21154V6.71377C7.13957 6.33351 6.98081 5.77645 6.72623 5.03742C6.55909 4.54567 6.38486 4.05241 6.21772 3.56108H7.05235ZM16.1525 16.1256C16.009 16.7484 15.4996 17.2082 14.8863 17.2767C13.4333 17.4389 11.9637 17.4398 10.4994 17.4389C9.03569 17.4398 7.56516 17.4389 6.11267 17.2767C5.49931 17.2082 4.98973 16.7487 4.84665 16.1256C4.64234 15.2386 4.64234 14.2699 4.64234 13.3564C4.64234 12.443 4.64492 11.4745 4.84901 10.5872C4.99231 9.9642 5.50146 9.50446 6.11481 9.43614C7.56752 9.27394 9.03784 9.27308 10.5019 9.27394C11.9656 9.27308 13.4359 9.27394 14.8886 9.43614C15.502 9.50468 16.0116 9.9642 16.1553 10.5872C16.3589 11.4745 16.3577 12.443 16.3577 13.3564C16.3577 14.2699 16.3568 15.2386 16.1525 16.1256Z" fill="currentColor" />
    <path d="M14.4304 11.8257C14.0682 11.8257 13.787 11.9587 13.5825 12.2261C13.4323 12.4238 13.3638 12.7293 13.3638 13.1467V14.5154C13.3638 14.9307 13.4405 15.2383 13.5913 15.434C13.7956 15.7009 14.0777 15.8343 14.448 15.8343C14.8178 15.8343 15.108 15.6944 15.3039 15.4106C15.3899 15.2852 15.4457 15.1431 15.4694 14.9863C15.476 14.9154 15.4844 14.7584 15.4844 14.53V14.4271H14.7623C14.7623 14.7107 14.7531 14.8682 14.7469 14.9066C14.7065 15.0959 14.6047 15.1904 14.4304 15.1904C14.1872 15.1904 14.0682 15.0099 14.0682 14.6486V13.9555H15.4844V13.1463C15.4844 12.7288 15.4137 12.4234 15.2653 12.2257C15.0674 11.9589 14.7858 11.8257 14.4304 11.8257ZM14.7767 13.3665H14.0686V13.0049C14.0686 12.6436 14.1874 12.4629 14.424 12.4629C14.6581 12.4629 14.7767 12.6438 14.7767 13.0049V13.3665Z" fill="currentColor" />
  </symbol>
  <symbol id="ico-envelope" viewBox="0 0 12 12" fill="none" xmlns="http://www.w3.org/2000/svg">
    <path d="M11.7494 2.23022C10.1025 3.62501 7.21259 6.07887 6.36321 6.84398C6.24919 6.94725 6.12689 6.99975 5.99993 6.99975C5.87323 6.99975 5.75114 6.94774 5.63737 6.84497C4.78727 6.0791 1.89738 3.62501 0.250404 2.23022C0.147865 2.14355 0.132233 1.9912 0.215248 1.88524C0.407155 1.64039 0.693279 1.5 0.999935 1.5H10.9999C11.3066 1.5 11.5927 1.64039 11.7846 1.88527C11.8676 1.9912 11.852 2.14355 11.7494 2.23022Z" fill="currentColor" />
    <path d="M0.145001 2.9862C0.233618 2.94495 0.337868 2.95934 0.411602 3.02234C1.49022 3.93664 2.91135 5.14465 3.98313 6.06652C4.03952 6.11487 4.07125 6.18591 4.07003 6.26037C4.06882 6.3346 4.03439 6.40465 3.97628 6.45103C2.98042 7.24864 1.4797 8.34582 0.395969 9.1256C0.35275 9.15685 0.301492 9.17271 0.249977 9.17271C0.210906 9.17271 0.17186 9.16369 0.135953 9.14513C0.0524454 9.1024 -3.05176e-05 9.01646 -3.05176e-05 8.92271V3.213C-7.15256e-06 3.1156 0.0566411 3.02698 0.145001 2.9862Z" fill="currentColor" />
    <path d="M11.604 9.12539C10.52 8.3456 9.01903 7.24845 8.02343 6.45082C7.96533 6.40444 7.9309 6.33436 7.92968 6.26016C7.92846 6.18569 7.9602 6.11466 8.01659 6.0663C9.08838 5.14444 10.5098 3.93642 11.5884 3.02212C11.6626 2.95912 11.7671 2.94522 11.855 2.98598C11.9434 3.02676 12 3.11538 12 3.21279V8.92252C12 9.01627 11.9475 9.10221 11.864 9.14494C11.8281 9.1635 11.7891 9.17252 11.75 9.17252C11.6985 9.17252 11.6472 9.15666 11.604 9.12539Z" fill="currentColor" />
    <path d="M0.306364 9.80564C1.35299 9.05686 3.28098 7.66088 4.43186 6.72677C4.52561 6.65037 4.66136 6.6528 4.75363 6.7324C4.97945 6.92941 5.16843 7.09545 5.30247 7.21603C5.7141 7.58761 6.28539 7.58761 6.69798 7.21554C6.83153 7.09519 7.02048 6.92866 7.24632 6.73237C7.33787 6.65229 7.47386 6.64985 7.56786 6.72675C8.71485 7.65767 10.645 9.05536 11.6934 9.80562C11.7517 9.84762 11.7893 9.91231 11.7966 9.98384C11.8037 10.0554 11.78 10.1264 11.7309 10.1791C11.5417 10.383 11.2751 10.5 11 10.5H0.999949C0.724793 10.5 0.45845 10.383 0.268746 10.1792C0.219927 10.1267 0.195997 10.0556 0.203074 9.9841C0.210411 9.91259 0.248005 9.84765 0.306364 9.80564Z" fill="currentColor" />
  </symbol>
  <symbol id="ico-time" viewBox="0 0 11 11" fill="none" xmlns="http://www.w3.org/2000/svg">
    <path d="M9.84253 2.89435C9.61471 3.00457 9.51937 3.27872 9.62959 3.50643C9.93071 4.12847 10.0833 4.79896 10.0833 5.5C10.0833 8.02721 8.02721 10.0833 5.5 10.0833C2.97279 10.0833 0.916667 8.02721 0.916667 5.5C0.916667 2.97279 2.97279 0.916667 5.5 0.916667C6.54725 0.916667 7.53106 1.25863 8.34534 1.90551C8.54284 2.06317 8.83165 2.03016 8.98931 1.83199C9.14697 1.63393 9.11396 1.34546 8.91568 1.18802C7.95168 0.421855 6.7386 0 5.5 0C2.46746 0 0 2.46746 0 5.5C0 8.53254 2.46746 11 5.5 11C8.53254 11 11 8.53254 11 5.5C11 4.65965 10.8165 3.85432 10.4546 3.10729C10.3446 2.87902 10.0696 2.78391 9.84253 2.89435Z" fill="currentColor" />
    <path d="M5.50008 1.83325C5.24708 1.83325 5.04175 2.03858 5.04175 2.29159V5.49992C5.04175 5.75292 5.24708 5.95825 5.50008 5.95825H7.79175C8.04475 5.95825 8.25008 5.75292 8.25008 5.49992C8.25008 5.24692 8.04475 5.04158 7.79175 5.04158H5.95841V2.29159C5.95841 2.03858 5.75308 1.83325 5.50008 1.83325Z" fill="currentColor" />
  </symbol>
  <symbol id="ico-close" width="15" height="15" viewBox="0 0 15 15" fill="none" xmlns="http://www.w3.org/2000/svg">
    <path fill-rule="evenodd" clip-rule="evenodd" d="M6.7929 7.50004L0.646454 1.35359L1.35356 0.646484L7.50001 6.79293L13.6465 0.646484L14.3536 1.35359L8.20711 7.50004L14.3536 13.6465L13.6465 14.3536L7.50001 8.20714L1.35356 14.3536L0.646454 13.6465L6.7929 7.50004Z" fill="currentColor" />
  </symbol>
  <symbol id="ico-field-user" width="19" height="18" viewBox="0 0 19 18" fill="none" xmlns="http://www.w3.org/2000/svg">
    <path d="M17.4929 11.4262C16.8632 10.902 16.0995 10.4491 15.223 10.0801C14.8482 9.92244 14.4097 10.0823 14.2433 10.4371C14.0769 10.792 14.2457 11.2074 14.6202 11.3652C15.3594 11.6764 15.9963 12.0523 16.5131 12.4825C17.1502 13.0129 17.5156 13.7808 17.5156 14.5898V15.8906C17.5156 16.2783 17.1827 16.5938 16.7734 16.5938H2.22656C1.81734 16.5938 1.48438 16.2783 1.48438 15.8906V14.5898C1.48438 13.7808 1.84982 13.0129 2.48691 12.4825C3.23678 11.8582 5.42159 10.4062 9.5 10.4062C12.5283 10.4062 14.9922 8.07207 14.9922 5.20312C14.9922 2.33418 12.5283 0 9.5 0C6.47167 0 4.00781 2.33418 4.00781 5.20312C4.00781 6.88033 4.85002 8.37447 6.15465 9.32657C3.76747 9.8237 2.28252 10.7806 1.50713 11.4262C0.549393 12.2234 0 13.3764 0 14.5898V15.8906C0 17.0538 0.998764 18 2.22656 18H16.7734C18.0012 18 19 17.0538 19 15.8906V14.5898C19 13.3764 18.4506 12.2234 17.4929 11.4262ZM5.49219 5.20312C5.49219 3.10954 7.29011 1.40625 9.5 1.40625C11.7099 1.40625 13.5078 3.10954 13.5078 5.20312C13.5078 7.29671 11.7099 9 9.5 9C7.29011 9 5.49219 7.29671 5.49219 5.20312Z" fill="#707070" />
  </symbol>
  <symbol id="ico-field-tel" width="19" height="18" viewBox="0 0 19 18" fill="none" xmlns="http://www.w3.org/2000/svg">
    <path d="M9.94549 2.14779C9.958 2.14779 9.97017 2.14772 9.9826 2.14772C11.7913 2.14772 13.4862 2.81021 14.7581 4.01515C16.0405 5.23005 16.7419 6.84939 16.7332 8.57482C16.7313 8.96312 17.062 9.27942 17.4719 9.28129C17.4731 9.28129 17.4743 9.28129 17.4755 9.28129C17.8836 9.28129 18.2156 8.96868 18.2176 8.5815C18.2281 6.47785 17.3723 4.50305 15.8077 3.02076C14.2552 1.54999 12.1881 0.74147 9.98282 0.74147C9.96928 0.74147 9.95562 0.741505 9.94204 0.741541C9.53213 0.743404 9.20145 1.05971 9.20338 1.44801C9.20534 1.83518 9.53725 2.14779 9.94549 2.14779Z" fill="#707070" />
    <path d="M18.9984 14.5046C18.9719 13.8083 18.6657 13.1585 18.1364 12.675C17.0999 11.7281 16.2315 11.1815 15.4034 10.9548C14.2623 10.6424 13.2056 10.9265 12.2624 11.7991C12.261 11.8004 12.2596 11.8017 12.2582 11.8031L11.2538 12.7476C10.6299 12.4155 9.41717 11.6849 8.09077 10.4283L7.99309 10.3358C6.67541 9.0875 5.89927 7.93206 5.54613 7.33862L6.54211 6.38796C6.54352 6.38662 6.5449 6.38528 6.54631 6.38391C7.4674 5.49045 7.76728 4.48927 7.43753 3.40828C7.19825 2.62384 6.6213 1.80111 5.6218 0.81916C5.11136 0.317656 4.4255 0.027616 3.69062 0.00251437C2.95589 -0.0225521 2.24959 0.219816 1.70226 0.685285L1.68096 0.703426C1.67105 0.711828 1.6614 0.720512 1.65202 0.729406C0.562482 1.76153 -0.00863205 3.20652 0.00034844 4.90812C0.0155633 7.79867 1.6925 11.1044 4.4861 13.7509C4.48844 13.7531 4.49074 13.7553 4.49308 13.7575C5.01825 14.2543 5.61453 14.7459 6.2655 15.2188C6.59076 15.4551 7.05664 15.3968 7.30609 15.0887C7.5555 14.7805 7.49401 14.3391 7.16871 14.1028C6.5662 13.6652 6.01679 13.2122 5.53574 12.7565C5.53344 12.7543 5.53114 12.7521 5.5288 12.75C3.00963 10.3607 1.49801 7.42711 1.48469 4.90105C1.47779 3.59057 1.8939 2.49675 2.68819 1.73649L2.69386 1.73164C3.23336 1.27292 4.05014 1.30084 4.55334 1.79521C6.47491 3.68303 6.33575 4.57428 5.48668 5.39911L4.11089 6.71231C3.89513 6.91825 3.83505 7.22861 3.95967 7.49369C3.99459 7.56801 4.8395 9.33683 6.94379 11.3304L7.04146 11.4228C9.14549 13.4161 11.0126 14.2165 11.091 14.2496C11.3708 14.3677 11.6984 14.3108 11.9158 14.1064L13.3017 12.8032C14.1725 11.9987 15.1133 11.8667 17.1061 13.6872C17.6279 14.1639 17.6574 14.9377 17.1733 15.4487L17.168 15.4542C16.372 16.2006 15.2298 16.5945 13.8615 16.5945C13.8503 16.5945 13.8389 16.5945 13.8277 16.5944C12.734 16.5892 11.4676 16.3052 10.1654 15.7731C9.78901 15.6192 9.35226 15.7836 9.18991 16.1402C9.02756 16.4968 9.20108 16.9105 9.57744 17.0643C11.0827 17.6794 12.5102 17.9944 13.8202 18.0006C13.8342 18.0007 13.848 18.0007 13.8619 18.0007C15.6399 18.0007 17.1501 17.4601 18.2311 16.4359C18.2405 16.427 18.2496 16.4179 18.2585 16.4085L18.2778 16.3882C18.7689 15.8698 19.0249 15.2008 18.9984 14.5046Z" fill="#707070" />
    <path d="M13.7106 5.01145C12.9145 4.2572 12.1504 4.05706 11.7832 3.96084C11.388 3.8573 10.9793 4.07682 10.8701 4.45113C10.7608 4.8254 10.9925 5.21272 11.3876 5.31622C11.6879 5.3949 12.1416 5.5138 12.661 6.00581C13.161 6.47947 13.2938 6.90708 13.3817 7.19005L13.3925 7.22447C13.488 7.53022 13.7835 7.72822 14.1038 7.72822C14.1736 7.72826 14.2445 7.71883 14.3148 7.69911C14.7078 7.5889 14.9322 7.19768 14.8158 6.82534L14.8057 6.79306C14.6912 6.42455 14.4782 5.73859 13.7106 5.01145Z" fill="#707070" />
  </symbol>
  <symbol id="ico-field-mail" width="21" height="20" viewBox="0 0 21 20" fill="none" xmlns="http://www.w3.org/2000/svg">
    <path d="M17.6778 2.26569H3.24024C1.4309 2.26569 -0.0410156 3.66751 -0.0410156 5.39069V14.6095C-0.0410156 16.3326 1.4309 17.7345 3.24024 17.7345H17.6778C18.6843 17.7345 19.621 17.3037 20.2478 16.5524C20.474 16.2811 20.5196 15.8163 20.1587 15.4891L20.1179 15.4524C20.085 15.4231 20.037 15.3802 19.9756 15.3257C19.8545 15.2181 19.6813 15.0645 19.4732 14.8805C19.0579 14.5129 18.504 14.0231 17.9498 13.5334C16.8419 12.5543 15.7335 11.5756 15.7335 11.5756C15.4012 11.2823 14.8823 11.3009 14.5742 11.6174C14.2663 11.9338 14.2858 12.4281 14.6181 12.7215C15.8192 13.782 17.4563 15.2282 18.3624 16.0304C18.1509 16.1227 17.9183 16.172 17.6778 16.172H3.24024C2.99671 16.172 2.76552 16.1207 2.55739 16.0296L6.30024 12.7212C6.63237 12.4276 6.65159 11.9334 6.3435 11.6171C6.03524 11.3007 5.51613 11.2824 5.18416 11.5759L1.6057 14.7392C1.60202 14.6963 1.59961 14.6531 1.59961 14.6095V5.39069C1.59961 5.34476 1.60218 5.29944 1.60618 5.25458L7.80917 10.6921C7.96057 10.8248 8.15876 10.8985 8.36464 10.8985H12.5537C12.7596 10.8985 12.9578 10.8248 13.1092 10.6922L19.3118 5.25596C19.3158 5.30051 19.3184 5.34522 19.3184 5.39069V11.4845C19.3184 11.916 19.6856 12.2657 20.1387 12.2657C20.5918 12.2657 20.959 11.916 20.959 11.4845V5.39069C20.959 3.66751 19.4871 2.26569 17.6778 2.26569ZM12.2337 9.33601H8.68476L2.56172 3.96857C2.76872 3.8787 2.99831 3.82819 3.24024 3.82819H17.6778C17.9202 3.82819 18.1501 3.87885 18.3574 3.96918L12.2337 9.33601Z" fill="#707070" />
  </symbol>
  <symbol id="ico-field-message" width="20" height="20" viewBox="0 0 20 20" fill="none" xmlns="http://www.w3.org/2000/svg">
    <path d="M18.3016 11.9755C18.14 11.5756 17.6847 11.3823 17.2846 11.544C16.8845 11.7058 16.6913 12.1611 16.8531 12.5612L17.7732 14.8372L15.0403 13.6326C14.8426 13.5453 14.6175 13.5441 14.4187 13.6288C13.4849 14.0274 12.4844 14.2294 11.4451 14.2294C7.26266 14.2294 4.45292 10.9546 4.45292 7.89595C4.45292 4.40368 7.58966 1.5625 11.4451 1.5625C15.3005 1.5625 18.4373 4.40368 18.4373 7.89595C18.4373 8.16831 18.4119 8.4947 18.3677 8.79102C18.304 9.21766 18.5984 9.6153 19.025 9.67893C19.4515 9.74256 19.8494 9.44822 19.9131 9.02158C19.9689 8.64683 19.9997 8.2472 19.9997 7.89595C19.9997 5.77361 19.101 3.78234 17.4692 2.28881C15.8567 0.812834 13.7173 0 11.4451 0C9.1729 0 7.03363 0.812834 5.42108 2.28881C3.96281 3.6235 3.09062 5.35582 2.9214 7.2238C1.08714 8.43839 -0.000195228 10.3848 -0.000195228 12.4815C-0.000195228 13.7912 0.412401 15.0338 1.19792 16.1032L0.0567199 18.9259C-0.0624509 19.2207 0.00896003 19.5584 0.237231 19.7796C0.386156 19.9238 0.582079 20 0.781205 20C0.887711 20 0.99498 19.9783 1.0963 19.9336L4.38639 18.4832C5.21418 18.7913 6.08896 18.9473 6.99197 18.9473C7.0115 18.9473 7.03073 18.9457 7.0498 18.9444C8.3561 18.9344 9.62578 18.591 10.7256 17.948C11.7106 17.3721 12.521 16.5809 13.0891 15.6465C13.6437 15.5468 14.1857 15.3965 14.712 15.1953L18.9034 17.043C19.0047 17.0877 19.112 17.1093 19.2183 17.1093C19.4175 17.1093 19.6135 17.0333 19.7623 16.889C19.9906 16.6677 20.062 16.3301 19.9428 16.0353L18.3016 11.9755ZM6.99197 17.3828C6.98129 17.3828 6.97092 17.384 6.96023 17.3843C6.16266 17.3803 5.39484 17.2235 4.67768 16.9175C4.47886 16.8327 4.25379 16.8341 4.05604 16.9212L2.22636 17.7278L2.81657 16.2678C2.92567 15.9979 2.87577 15.6897 2.68687 15.4681C1.95125 14.6051 1.5623 13.5722 1.5623 12.4815C1.5623 11.233 2.08751 10.05 3.00639 9.15311C3.29249 10.7126 4.09968 12.2046 5.31748 13.3764C6.83267 14.8349 8.83706 15.6796 11.0012 15.7814C9.98513 16.7816 8.53112 17.3828 6.99197 17.3828Z" fill="#707070" />
  </symbol>
  <symbol id="ico-field-company" viewBox="0 0 23 23" fill="none" xmlns="http://www.w3.org/2000/svg">
    <path d="M13.4167 8.71118L21.8596 10.3883C22.54 10.532 23 11.107 23 11.7874V21.5624C23 22.3578 22.3579 22.9999 21.5625 22.9999H12.9375C13.2058 22.9999 13.4167 22.7891 13.4167 22.5208V22.0416H21.5625C21.8212 22.0416 22.0417 21.8308 22.0417 21.5624V11.7874C22.0417 11.567 21.8883 11.3658 21.6679 11.3178L13.4167 9.68868V8.71118Z" fill="currentColor" />
    <path d="M18.6888 13.4166C18.9571 13.4166 19.168 13.6275 19.168 13.8958C19.168 14.1641 18.9571 14.375 18.6888 14.375H16.7721C16.5038 14.375 16.293 14.1641 16.293 13.8958C16.293 13.6275 16.5038 13.4166 16.7721 13.4166H18.6888Z" fill="currentColor" />
    <path d="M18.6888 16.2916C18.9571 16.2916 19.168 16.5025 19.168 16.7708C19.168 17.0391 18.9571 17.25 18.6888 17.25H16.7721C16.5038 17.25 16.293 17.0391 16.293 16.7708C16.293 16.5025 16.5038 16.2916 16.7721 16.2916H18.6888Z" fill="currentColor" />
    <path d="M18.6888 19.1666C18.9571 19.1666 19.168 19.3775 19.168 19.6458C19.168 19.9141 18.9571 20.125 18.6888 20.125H16.7721C16.5038 20.125 16.293 19.9141 16.293 19.6458C16.293 19.3775 16.5038 19.1666 16.7721 19.1666H18.6888Z" fill="currentColor" />
    <path d="M13.4154 22.5208C13.4154 22.7891 13.2045 23 12.9362 23C12.6679 23 12.457 22.7891 12.457 22.5208V22.0416V9.10414C12.457 8.96039 12.5241 8.82623 12.6295 8.73039C12.7445 8.64414 12.8883 8.60581 13.032 8.63456L13.4154 8.71123V9.68873V22.0416V22.5208Z" fill="currentColor" />
    <path d="M12.4596 22.0416V22.5208C12.4596 22.7891 12.6705 23 12.9388 23H9.10547C9.3738 23 9.58463 22.7891 9.58463 22.5208V22.0416H12.4596Z" fill="currentColor" />
    <path d="M10.0638 4.79163C10.3321 4.79163 10.543 5.00246 10.543 5.27079C10.543 5.53912 10.3321 5.74996 10.0638 5.74996H8.14714C7.8788 5.74996 7.66797 5.53912 7.66797 5.27079C7.66797 5.00246 7.8788 4.79163 8.14714 4.79163H10.0638Z" fill="currentColor" />
    <path d="M10.543 8.14579C10.543 8.41413 10.3321 8.62496 10.0638 8.62496H8.14714C7.8788 8.62496 7.66797 8.41413 7.66797 8.14579C7.66797 7.87746 7.8788 7.66663 8.14714 7.66663H10.0638C10.3321 7.66663 10.543 7.87746 10.543 8.14579Z" fill="currentColor" />
    <path d="M10.0638 10.5416C10.3321 10.5416 10.543 10.7525 10.543 11.0208C10.543 11.2891 10.3321 11.5 10.0638 11.5H8.14714C7.8788 11.5 7.66797 11.2891 7.66797 11.0208C7.66797 10.7525 7.8788 10.5416 8.14714 10.5416H10.0638Z" fill="currentColor" />
    <path d="M10.0638 13.4166C10.3321 13.4166 10.543 13.6275 10.543 13.8958C10.543 14.1641 10.3321 14.375 10.0638 14.375H8.14714C7.8788 14.375 7.66797 14.1641 7.66797 13.8958C7.66797 13.6275 7.8788 13.4166 8.14714 13.4166H10.0638Z" fill="currentColor" />
    <path d="M5.75 13.8958C5.75 14.1641 5.53917 14.375 5.27083 14.375H3.35417C3.08583 14.375 2.875 14.1641 2.875 13.8958C2.875 13.6275 3.08583 13.4166 3.35417 13.4166H5.27083C5.53917 13.4166 5.75 13.6275 5.75 13.8958Z" fill="currentColor" />
    <path d="M5.27083 4.79163C5.53917 4.79163 5.75 5.00246 5.75 5.27079C5.75 5.53912 5.53917 5.74996 5.27083 5.74996H3.35417C3.08583 5.74996 2.875 5.53912 2.875 5.27079C2.875 5.00246 3.08583 4.79163 3.35417 4.79163H5.27083Z" fill="currentColor" />
    <path d="M5.27083 7.66663C5.53917 7.66663 5.75 7.87746 5.75 8.14579C5.75 8.41413 5.53917 8.62496 5.27083 8.62496H3.35417C3.08583 8.62496 2.875 8.41413 2.875 8.14579C2.875 7.87746 3.08583 7.66663 3.35417 7.66663H5.27083Z" fill="currentColor" />
    <path d="M5.27083 10.5416C5.53917 10.5416 5.75 10.7525 5.75 11.0208C5.75 11.2891 5.53917 11.5 5.27083 11.5H3.35417C3.08583 11.5 2.875 11.2891 2.875 11.0208C2.875 10.7525 3.08583 10.5416 3.35417 10.5416H5.27083Z" fill="currentColor" />
    <path d="M8.6237 17.7291C8.6237 17.4608 8.40328 17.25 8.14453 17.25H5.26953C5.0012 17.25 4.79036 17.4608 4.79036 17.7291V22.0416H3.83203V17.7291C3.83203 16.9337 4.47411 16.2916 5.26953 16.2916H8.14453C8.93995 16.2916 9.58203 16.9337 9.58203 17.7291V22.0416H8.6237V17.7291Z" fill="currentColor" />
    <path d="M4.79036 22.0416H8.6237H9.58203V22.5208C9.58203 22.7891 9.3712 23 9.10286 23H4.3112C4.04286 23 3.83203 22.7891 3.83203 22.5208V22.0416H4.79036Z" fill="currentColor" />
    <path d="M1.67708 0.191631L12.2092 1.79205C12.9088 1.90705 13.4167 2.50121 13.4167 3.21038V8.71122L13.0333 8.63455C12.8896 8.6058 12.7458 8.64413 12.6308 8.73038C12.5254 8.82621 12.4583 8.96038 12.4583 9.10413V3.21038C12.4583 2.9708 12.2858 2.76955 12.0558 2.73121L1.52375 1.14038C1.495 1.1308 1.46625 1.1308 1.4375 1.1308C1.3225 1.1308 1.21708 1.16913 1.13083 1.2458C1.01583 1.34163 0.958333 1.46621 0.958333 1.60996V21.5625C0.958333 21.8308 1.17875 22.0416 1.4375 22.0416H3.83333V22.5208C3.83333 22.7891 4.04417 23 4.3125 23H1.4375C0.642083 23 0 22.3579 0 21.5625V1.60996C0 1.1883 0.182083 0.785798 0.507917 0.517465C0.83375 0.239548 1.25542 0.124548 1.67708 0.191631Z" fill="currentColor" />
  </symbol>
  <symbol id="ico-field-address" viewBox="0 0 24 24" fill="none" xmlns="http://www.w3.org/2000/svg">
    <path d="M12 0C7.34756 0 3.5625 3.78506 3.5625 8.4375C3.5625 10.0094 3.99792 11.5434 4.82198 12.8743L11.5197 23.6676C11.648 23.8744 11.874 24 12.1171 24C12.119 24 12.1208 24 12.1227 24C12.3679 23.9981 12.5944 23.8686 12.7204 23.6582L19.2474 12.7603C20.026 11.4576 20.4375 9.96277 20.4375 8.4375C20.4375 3.78506 16.6524 0 12 0ZM18.0406 12.0383L12.1065 21.9462L6.0172 12.1334C5.33128 11.0257 4.95938 9.74766 4.95938 8.4375C4.95938 4.56047 8.12297 1.39687 12 1.39687C15.877 1.39687 19.0359 4.56047 19.0359 8.4375C19.0359 9.7088 18.6885 10.9541 18.0406 12.0383Z" fill="#707070"/>
    <path d="M12 4.21875C9.67378 4.21875 7.78125 6.11128 7.78125 8.4375C7.78125 10.7489 9.64298 12.6562 12 12.6562C14.3861 12.6562 16.2188 10.7235 16.2188 8.4375C16.2188 6.11128 14.3262 4.21875 12 4.21875ZM12 11.2594C10.4411 11.2594 9.17813 9.9922 9.17813 8.4375C9.17813 6.88669 10.4492 5.61563 12 5.61563C13.5508 5.61563 14.8172 6.88669 14.8172 8.4375C14.8172 9.96952 13.5836 11.2594 12 11.2594Z" fill="#707070"/>
  </symbol>
  <symbol id="ico-cansel" viewBox="0 0 13 13" fill="none" xmlns="http://www.w3.org/2000/svg">
    <path fill-rule="evenodd" clip-rule="evenodd" d="M4.56026 6.58537L0.439453 2.45622L2.45227 0.439331L6.52399 4.51929L10.3782 0.46422L12.4395 2.43133L8.5374 6.53678L12.4152 10.4224L10.4024 12.4393L6.57368 8.60286L2.95094 12.4144L0.889639 10.4473L4.56026 6.58537Z" fill="currentColor" />
  </symbol>
  <symbol id="ico-pager-prev" width="20" height="8" viewBox="0 0 20 8" fill="none" xmlns="http://www.w3.org/2000/svg">
    <path d="M0.646446 3.64645C0.451185 3.84171 0.451185 4.15829 0.646446 4.35356L3.82843 7.53554C4.02369 7.7308 4.34027 7.7308 4.53553 7.53554C4.7308 7.34027 4.7308 7.02369 4.53553 6.82843L1.70711 4L4.53553 1.17157C4.7308 0.976312 4.7308 0.65973 4.53553 0.464467C4.34027 0.269205 4.02369 0.269205 3.82843 0.464468L0.646446 3.64645ZM20 3.5L1 3.5L1 4.5L20 4.5L20 3.5Z" fill="currentColor" />
  </symbol>
  <symbol id="ico-pager-next" width="20" height="8" viewBox="0 0 20 8" fill="none" xmlns="http://www.w3.org/2000/svg">
    <path d="M19.3536 4.35356C19.5488 4.15829 19.5488 3.84171 19.3536 3.64645L16.1716 0.464469C15.9763 0.269207 15.6597 0.269207 15.4645 0.464469C15.2692 0.659731 15.2692 0.976313 15.4645 1.17158L18.2929 4L15.4645 6.82843C15.2692 7.02369 15.2692 7.34027 15.4645 7.53554C15.6597 7.7308 15.9763 7.7308 16.1716 7.53554L19.3536 4.35356ZM-8.74228e-08 4.5L19 4.5L19 3.5L8.74228e-08 3.5L-8.74228e-08 4.5Z" fill="currentColor" />
  </symbol>
  <symbol id="ico-example" viewBox="0 0 21 21" fill="none" xmlns="http://www.w3.org/2000/svg">
    <path d="M19.25 14H13.2125L6.56251 20.5625L6.125 21H19.25C20.2165 21 21 20.2165 21 19.25V15.75C21 14.7835 20.2165 14 19.25 14Z" fill="#E0922E" />
    <path d="M17.1496 6.38749L14.6121 3.84998C13.9316 3.18298 12.8425 3.18298 12.1621 3.84998L7.8746 8.13751V17.5C7.8602 17.706 7.83096 17.9107 7.78711 18.1125L17.1496 8.83752C17.8166 8.15703 17.8166 7.06798 17.1496 6.38749Z" fill="#3E82D0" />
    <path d="M7.00001 1.75001C7.00001 0.783522 6.21649 0 5.25 0H1.75001C0.783522 0 0 0.783522 0 1.75001V17.5C0 19.433 1.567 21 3.49999 21C5.43297 21 6.99997 19.433 6.99997 17.5V1.75001H7.00001ZM3.49999 18.375C3.01674 18.375 2.625 17.9833 2.625 17.5C2.625 17.0168 3.01674 16.625 3.49999 16.625C3.98323 16.625 4.37497 17.0168 4.37497 17.5C4.37497 17.9833 3.98323 18.375 3.49999 18.375Z" fill="#6FB944" />
  </symbol>
  <symbol id="ico-delivery" viewBox="0 0 21 12" fill="none" xmlns="http://www.w3.org/2000/svg">
    <path d="M19.6577 5.59968C19.5917 5.58611 19.5295 5.57334 19.4741 5.55924C18.8466 5.39936 18.5602 5.31173 18.3485 4.91114L17.5463 3.32C17.2885 2.8324 16.6229 2.43569 16.0625 2.43569H14.6344V0.598323C14.6344 0.268422 14.3604 0 14.0236 0L4.07716 0.00978641C3.74944 0.00978641 3.50231 0.264952 3.50231 0.60335V1.14642H0.954283C0.428106 1.14647 0 1.56587 0 2.08145C0 2.59703 0.428106 3.01644 0.954283 3.01644H3.50226V3.91259H1.83401C1.30784 3.91259 0.879731 4.33204 0.879731 4.84757C0.879731 5.36311 1.30784 5.78256 1.83401 5.78256H3.50226V6.67871H2.71375C2.18757 6.67871 1.75946 7.09816 1.75946 7.61369C1.75946 8.12923 2.18757 8.54868 2.71375 8.54868H3.50226V9.48598C3.50226 9.81588 3.77622 10.0843 4.11293 10.0843H5.14758C5.30872 11.1663 6.26187 12 7.41034 12C8.5589 12 9.51209 11.1663 9.67328 10.0843H13.8605C13.8823 10.0843 13.9046 10.0829 13.9268 10.0815C14.0867 11.1648 15.0405 12 16.1899 12C17.3385 12 18.2917 11.1663 18.4529 10.0843H19.939C20.524 10.0843 21 9.61801 21 9.04486V7.28112C21 5.87562 20.1921 5.70956 19.6577 5.59968ZM16.1899 8.94486C16.6485 8.94486 17.0216 9.31026 17.0216 9.75943C17.0216 10.2086 16.6485 10.574 16.1899 10.574C15.7316 10.574 15.3586 10.2086 15.3586 9.75943C15.3586 9.31026 15.7316 8.94486 16.1899 8.94486ZM14.6344 5.47299V3.30345H15.7257C16.1451 3.30345 16.6625 3.61182 16.8546 3.97491L17.5684 5.39082C17.5835 5.41947 17.5992 5.44678 17.6155 5.47294H14.6344V5.47299ZM8.24199 9.75938C8.24199 10.2085 7.86891 10.5739 7.41034 10.5739C6.95195 10.5739 6.57905 10.2085 6.57905 9.75938C6.57905 9.31022 6.95195 8.94482 7.41034 8.94482C7.86891 8.94486 8.24199 9.31026 8.24199 9.75938Z" fill="currentColor" />
  </symbol>
  <symbol id="ico-pdf" viewBox="0 0 27 27" fill="none" xmlns="http://www.w3.org/2000/svg">
    <path d="M6.73635 11.0215H5.0625C4.85231 11.0215 4.6507 11.1052 4.50225 11.254C4.35381 11.4029 4.2708 11.6048 4.27149 11.815L4.28314 17.8239C4.28314 18.2607 4.63731 18.6149 5.07416 18.6149C5.51101 18.6149 5.86517 18.2607 5.86517 17.8239V15.9994C6.18859 15.9978 6.53411 15.9963 6.73635 15.9963C8.12621 15.9963 9.257 14.8805 9.257 13.5089C9.257 12.1373 8.12621 11.0215 6.73635 11.0215ZM6.73635 14.4143C6.53232 14.4143 6.18554 14.4157 5.86085 14.4174C5.85916 14.0807 5.85769 13.718 5.85769 13.5089C5.85769 13.33 5.85679 12.9555 5.85584 12.6035H6.73629C7.24507 12.6035 7.67491 13.0181 7.67491 13.5089C7.67491 13.9997 7.24513 14.4143 6.73635 14.4143Z" fill="currentColor" />
    <path d="M13.4647 11.0215H11.8125C11.6025 11.0215 11.401 11.105 11.2526 11.2537C11.1042 11.4023 11.0211 11.6039 11.0215 11.814C11.0215 11.814 11.0332 17.6277 11.0333 17.6488C11.0341 17.8587 11.1181 18.0596 11.2671 18.2074C11.4153 18.3545 11.6156 18.437 11.8243 18.437H11.8273C11.8773 18.4368 13.0557 18.4323 13.5268 18.4241C15.3142 18.3929 16.6115 16.8389 16.6115 14.7292C16.6114 12.5115 15.3469 11.0215 13.4647 11.0215ZM13.4992 16.8423C13.2943 16.8459 12.9419 16.8488 12.6127 16.8509C12.6105 16.1638 12.6062 13.3175 12.6049 12.6035H13.4647C14.9166 12.6035 15.0294 14.2306 15.0294 14.7293C15.0294 15.7677 14.5563 16.8238 13.4992 16.8423Z" fill="currentColor" />
    <path d="M21.8248 12.5425C22.2617 12.5425 22.6158 12.1883 22.6158 11.7515C22.6158 11.3146 22.2617 10.9604 21.8248 10.9604H19.4062C18.9694 10.9604 18.6152 11.3146 18.6152 11.7515V17.7188C18.6152 18.1556 18.9694 18.5098 19.4062 18.5098C19.8431 18.5098 20.1973 18.1556 20.1973 17.7188V15.4697H21.6327C22.0695 15.4697 22.4237 15.1155 22.4237 14.6786C22.4237 14.2418 22.0695 13.8876 21.6327 13.8876H20.1973V12.5425H21.8248Z" fill="currentColor" />
    <path d="M24.1523 7.64648H23.5723V7.42083C23.5723 6.40401 23.187 5.43765 22.4874 4.69969L19.2018 1.23393C18.4583 0.449771 17.4122 0 16.3316 0H5.80078C4.49228 0 3.42773 1.06455 3.42773 2.37305V7.64648H2.84766C1.53916 7.64648 0.474609 8.71103 0.474609 10.0195V19.5117C0.474609 20.8202 1.53916 21.8848 2.84766 21.8848H3.42773V24.627C3.42773 25.9355 4.49228 27 5.80078 27H21.1992C22.5077 27 23.5723 25.9355 23.5723 24.627V21.8848H24.1523C25.4608 21.8848 26.5254 20.8202 26.5254 19.5117V10.0195C26.5254 8.71103 25.4608 7.64648 24.1523 7.64648ZM5.00977 2.37305C5.00977 1.93688 5.36462 1.58203 5.80078 1.58203H16.3316C16.9799 1.58203 17.6076 1.85187 18.0537 2.32242L21.3393 5.78818C21.7591 6.23094 21.9902 6.81075 21.9902 7.42083V7.64648H5.00977V2.37305ZM21.9902 24.627C21.9902 25.0631 21.6354 25.418 21.1992 25.418H5.80078C5.36462 25.418 5.00977 25.0631 5.00977 24.627V21.8848H21.9902V24.627ZM24.9434 19.5117C24.9434 19.9479 24.5885 20.3027 24.1523 20.3027H2.84766C2.41149 20.3027 2.05664 19.9479 2.05664 19.5117V10.0195C2.05664 9.58337 2.41149 9.22852 2.84766 9.22852H24.1523C24.5885 9.22852 24.9434 9.58337 24.9434 10.0195V19.5117Z" fill="currentColor" />
  </symbol>
  <symbol id="ico-video" viewBox="0 0 34 28" fill="none" xmlns="http://www.w3.org/2000/svg">
    <path d="M10.958 16.67V20.4193L14.7072 18.5451L10.958 16.67Z" fill="currentColor" />
    <path d="M20.918 5.5332C20.918 2.51238 18.4603 0.0546875 15.4395 0.0546875C12.4214 0.0546875 9.96094 2.51338 9.96094 5.5332C9.96094 6.85768 10.4412 8.0935 11.2171 9.01953H8.98616C7.87658 6.97442 7.77903 4.46453 8.86988 2.27139C5.96939 1.31574 2.98828 3.49221 2.98828 6.5293C2.98828 7.45015 3.26765 8.30686 3.74571 9.01953H0V13.3735H5.97723V15.3657H0V21.6079H5.97723V23.6001H0V27.9453H25.8984V9.01953H19.6624C20.4463 8.07171 20.918 6.85655 20.918 5.5332ZM8.96551 23.6425V13.4463L19.1616 18.5455L8.96551 23.6425Z" fill="currentColor" />
    <path d="M27.8906 13.3844V23.5806L34 26.5688V10.3961L27.8906 13.3844Z" fill="currentColor" />
  </symbol>
  <symbol id="ico-support" viewBox="0 0 37 42" fill="none" xmlns="http://www.w3.org/2000/svg">
    <path d="M9.65171 31.9478C10.0957 31.9478 10.4561 32.3082 10.4561 32.7522C10.4561 33.1962 10.0957 33.5565 9.65171 33.5565C9.20771 33.5565 8.84736 33.1962 8.84736 32.7522C8.84736 32.3082 9.20771 31.9478 9.65171 31.9478Z" fill="currentColor" />
    <path d="M7.67171 29.3468L11.4948 28.0727L12.8672 25.3277C11.6308 24.0692 10.7723 22.4041 10.4828 20.6672L10.3117 19.6413H8.84783C7.51727 19.6413 6.43478 18.5588 6.43478 17.2283V12.1609C6.43478 5.5081 11.8472 0.0956421 18.5 0.0956421C25.1698 0.0956421 30.5652 5.49257 30.5652 12.1609V17.2283C30.5652 18.2768 29.8927 19.1709 28.9565 19.5029V20.4456C28.9565 21.7762 27.874 22.8587 26.5435 22.8587H25.8371C25.4884 23.6161 25.0371 24.3177 24.4879 24.9479C24.374 25.0788 24.2552 25.2058 24.1335 25.3292L25.5052 28.0727L29.3284 29.3469C33.7736 30.8291 37 35.5087 37 40.4739C37 40.9181 36.6399 41.2782 36.1957 41.2782H0.804348C0.360188 41.2782 0 40.9181 0 40.4739C0 35.5087 3.22632 30.8291 7.67171 29.3468ZM8.04348 17.2283C8.04348 17.6718 8.40431 18.0326 8.84783 18.0326H10.0754C9.87095 16.4488 9.7347 14.7635 9.67992 13.1036C9.67831 13.0567 9.67703 13.0112 9.67558 12.9652H8.04348V17.2283ZM28.1522 18.0326C28.5957 18.0326 28.9565 17.6718 28.9565 17.2283V12.9652H27.3239C27.3212 13.0491 27.3184 13.1334 27.3152 13.2183C27.3152 13.2211 27.315 13.224 27.3149 13.2269C27.3149 13.2271 27.3149 13.2273 27.3149 13.2276C27.2586 14.8421 27.1241 16.4837 26.9243 18.0325H28.1522V18.0326ZM26.5435 21.25C26.987 21.25 27.3478 20.8892 27.3478 20.4456V19.6413H26.6884L26.5173 20.6676C26.4846 20.8626 26.4445 21.0569 26.3981 21.25H26.5435ZM27.3465 11.3565H28.926C28.5186 5.96569 24.0197 1.70434 18.5 1.70434C13.0049 1.70434 8.48619 5.96513 8.07412 11.3565H9.65346C9.71137 6.91434 13.3288 3.31303 17.78 3.31303H19.2198C23.671 3.31303 27.2886 6.91434 27.3465 11.3565ZM19.2199 4.92173H17.7801C14.1759 4.92173 11.2588 7.86974 11.2609 11.4699C11.2609 11.7231 11.2629 11.9434 11.2671 12.144C11.2671 12.1465 11.2672 12.1492 11.2672 12.1518L12.2733 12.0081C15.0065 11.6178 17.5871 10.3275 19.5399 8.37471C19.6908 8.2239 19.8954 8.13912 20.1087 8.13912C22.2689 8.13912 24.3367 9.12332 25.7036 10.7861C25.3667 7.51084 22.5979 4.92173 19.2199 4.92173ZM24.7305 21.25C25.1331 19.9105 25.5939 15.9692 25.6957 13.4436L24.6131 12.0001C23.6189 10.6748 22.072 9.85142 20.4266 9.7569C18.2615 11.8173 15.4606 13.178 12.5008 13.6006L11.3166 13.7698C11.3958 15.4497 11.5575 17.1354 11.7892 18.6858C11.7893 18.6863 11.7894 18.6869 11.7895 18.6874C11.8632 19.1859 11.9212 19.5066 12.0696 20.4026C12.4955 22.9576 14.402 25.2681 16.9187 25.8974C17.9545 26.1559 19.0457 26.1559 20.0809 25.8974C21.6523 25.5045 23.0932 24.4172 24.0231 22.8587H22.3834C22.0514 23.7949 21.1573 24.4674 20.1087 24.4674H18.5C17.1668 24.4674 16.087 23.3876 16.087 22.0543C16.087 20.7238 17.1694 19.6413 18.5 19.6413H20.1087C21.1806 19.6413 22.0615 20.3337 22.3848 21.25H24.7305ZM20.1763 27.5252C19.6246 27.6414 19.0622 27.7009 18.5 27.7009C18.0599 27.7009 17.6198 27.664 17.1847 27.5926L18.6059 29.0957L20.1763 27.5252ZM19.7118 30.265L22.263 32.963C22.9653 31.6186 23.5688 30.2194 24.0638 28.7871L23.1058 26.8709L19.7118 30.265ZM14.0306 26.5984L12.9363 28.787C13.4321 30.2218 14.0358 31.6214 14.7374 32.9642L17.468 30.2336L14.0306 26.5984ZM20.913 22.0543C20.913 21.6103 20.5529 21.25 20.1087 21.25H18.5C18.0565 21.25 17.6957 21.6108 17.6957 22.0543C17.6957 22.4985 18.0559 22.8587 18.5 22.8587H20.1087C20.5522 22.8587 20.913 22.4979 20.913 22.0543ZM35.3591 39.6696C35.0404 35.6849 32.3885 32.0631 28.8196 30.873L25.4338 29.7446C24.8135 31.4599 24.045 33.1271 23.1444 34.7107C23.1429 34.7134 23.1414 34.7161 23.1399 34.7188C23.1399 34.7189 23.1398 34.7189 23.1398 34.719C22.4818 35.8763 21.7411 37.0073 20.9381 38.081L19.9486 39.6696H35.3591ZM18.5 38.9526L19.5909 37.2012C19.6031 37.1816 19.6161 37.1626 19.6299 37.1441C20.2813 36.2752 20.8889 35.3665 21.4423 34.4365L18.5738 31.403L15.5512 34.4255C16.1083 35.3624 16.718 36.2748 17.3699 37.1439C17.4093 37.1964 17.3534 37.1137 18.5 38.9526ZM17.0514 39.6696L16.0619 38.0811C15.2554 37.0033 14.5095 35.8632 13.8448 34.6922C13.8408 34.6852 13.837 34.6779 13.833 34.6709C13.8325 34.67 13.832 34.6692 13.8316 34.6683C12.9424 33.0998 12.1819 31.4471 11.5662 29.7446L8.18046 30.873C4.61149 32.0631 1.95963 35.6849 1.64087 39.6696H17.0514Z" fill="currentColor" />
    <path d="M4.05803 36.4144C4.59557 35.3384 5.38295 34.3825 6.33506 33.6501C6.6872 33.3791 7.19217 33.445 7.463 33.7971C7.7339 34.1493 7.66802 34.6542 7.31596 34.9251C6.55553 35.5102 5.92669 36.2737 5.49725 37.1333C5.29833 37.5314 4.81492 37.6916 4.41821 37.4934C4.02086 37.2949 3.85959 36.8118 4.05803 36.4144Z" fill="currentColor" />
  </symbol>
  <symbol id="ico-message" viewBox="0 0 22 22" fill="none" xmlns="http://www.w3.org/2000/svg">
    <path d="M11 0C4.92059 0 0 4.91975 0 11C0 12.9294 0.503204 14.8138 1.45876 16.4758L0.0414581 20.8771C-0.0574036 21.1839 0.0238342 21.5203 0.25177 21.7482C0.477524 21.974 0.813049 22.0582 1.12289 21.9585L5.52417 20.5412C7.18619 21.4968 9.0706 22 11 22C17.0794 22 22 17.0802 22 11C22 4.92059 17.0802 0 11 0ZM11 20.2812C9.25725 20.2812 7.55847 19.795 6.0873 18.875C5.87564 18.7428 5.61279 18.707 5.36824 18.7857L2.19107 19.8089L3.21426 16.6318C3.29181 16.3907 3.25908 16.1275 3.1248 15.9127C2.205 14.4415 1.71875 12.7428 1.71875 11C1.71875 5.88235 5.88235 1.71875 11 1.71875C16.1176 1.71875 20.2812 5.88235 20.2812 11C20.2812 16.1176 16.1176 20.2812 11 20.2812ZM12.0742 11C12.0742 11.5932 11.5933 12.0742 11 12.0742C10.4067 12.0742 9.92578 11.5932 9.92578 11C9.92578 10.4067 10.4067 9.92578 11 9.92578C11.5933 9.92578 12.0742 10.4067 12.0742 11ZM16.3711 11C16.3711 11.5932 15.8902 12.0742 15.2969 12.0742C14.7035 12.0742 14.2227 11.5932 14.2227 11C14.2227 10.4067 14.7035 9.92578 15.2969 9.92578C15.8902 9.92578 16.3711 10.4067 16.3711 11ZM7.77734 11C7.77734 11.5932 7.29646 12.0742 6.70312 12.0742C6.10995 12.0742 5.62891 11.5932 5.62891 11C5.62891 10.4067 6.10995 9.92578 6.70312 9.92578C7.29646 9.92578 7.77734 10.4067 7.77734 11Z" fill="currentColor" />
  </symbol>
  <symbol id="ico-rating" viewBox="0 0 20 19" fill="none" xmlns="http://www.w3.org/2000/svg">
    <path d="M10.2013 0.306L12.6793 6.171L19.0233 6.716C19.4633 6.754 19.6423 7.303 19.3083 7.592L14.4963 11.761L15.9383 17.963C16.0383 18.394 15.5713 18.733 15.1933 18.504L9.74128 15.216L4.28928 18.504C3.91028 18.732 3.44428 18.393 3.54428 17.963L4.98628 11.761L0.173282 7.591C-0.160718 7.302 0.0172817 6.753 0.458282 6.715L6.80228 6.17L9.28028 0.306C9.45228 -0.102 10.0293 -0.102 10.2013 0.306Z" fill="currentColor" />
  </symbol>
  <symbol id="ico-cart-remove" width="15" height="15" viewBox="0 0 15 15" fill="none" xmlns="http://www.w3.org/2000/svg">
    <path d="M0.857268 13.3176C0.701705 13.162 0.616145 12.9831 0.600588 12.7809C0.616144 12.5787 0.701704 12.3998 0.857267 12.2442L5.71085 7.39063L0.927271 2.60706C0.771707 2.45149 0.686147 2.27259 0.670591 2.07036C0.686147 1.86813 0.771708 1.68923 0.927271 1.53367L1.67398 0.786962C1.82954 0.631398 2.00066 0.553617 2.18733 0.553617C2.40512 0.553617 2.5918 0.631399 2.74736 0.786962L7.53094 5.57054L12.2445 0.856966C12.4001 0.701403 12.5712 0.623621 12.7579 0.623621C12.9757 0.623621 13.1623 0.701403 13.3179 0.856966L14.1346 1.67367C14.2902 1.82924 14.3602 2.00814 14.3446 2.21037C14.3602 2.4126 14.2902 2.5915 14.1346 2.74706L9.42104 7.46064L14.2279 12.2675C14.3835 12.4231 14.4535 12.602 14.438 12.8042C14.4535 13.0065 14.3835 13.1854 14.228 13.3409L13.4812 14.0876C13.3257 14.2432 13.139 14.321 12.9212 14.321C12.7345 14.321 12.5634 14.2432 12.4079 14.0876L7.60094 9.28073L2.74736 14.1343C2.5918 14.2899 2.40512 14.3677 2.18734 14.3677C2.00066 14.3677 1.82954 14.2899 1.67398 14.1343L0.857268 13.3176Z" fill="white" />
  </symbol>
  <symbol id="ico-back" viewBox="0 0 20 16" fill="none" xmlns="http://www.w3.org/2000/svg">
    <path d="M0.292893 7.29289C-0.0976311 7.68342 -0.0976311 8.31658 0.292893 8.70711L6.65685 15.0711C7.04738 15.4616 7.68054 15.4616 8.07107 15.0711C8.46159 14.6805 8.46159 14.0474 8.07107 13.6569L2.41421 8L8.07107 2.34315C8.46159 1.95262 8.46159 1.31946 8.07107 0.928932C7.68054 0.538408 7.04738 0.538408 6.65685 0.928932L0.292893 7.29289ZM20 7L1 7V9L20 9V7Z" fill="currentColor"/>
  </symbol>
  <symbol id="ico-dot" viewBox="0 0 8 8" fill="none" xmlns="http://www.w3.org/2000/svg">
    <circle cx="4" cy="4" r="4" fill="currentColor"/>
  </symbol>


</svg>